<mxfile host="app.diagrams.net" modified="2024-05-26T12:00:09.909Z" agent="Mozilla/5.0 (Windows NT 10.0; Win64; x64) AppleWebKit/537.36 (KHTML, like Gecko) Chrome/124.0.0.0 Safari/537.36" etag="gCBPTXZUKTTzqZhenPSf" version="24.4.0" type="device" pages="2">
  <diagram id="R2lEEEUBdFMjLlhIrx00" name="Page-1">
    <mxGraphModel dx="1434" dy="772" grid="1" gridSize="10" guides="1" tooltips="1" connect="1" arrows="1" fold="1" page="1" pageScale="1" pageWidth="100" pageHeight="1200" math="0" shadow="0" extFonts="Permanent Marker^https://fonts.googleapis.com/css?family=Permanent+Marker">
      <root>
        <mxCell id="0" />
        <mxCell id="1" parent="0" />
        <mxCell id="_AAOeLuktKhKLIWwnHHZ-40" value="cook" style="shape=table;startSize=30;container=1;collapsible=1;childLayout=tableLayout;fixedRows=1;rowLines=0;fontStyle=1;align=center;resizeLast=1;html=1;" parent="1" vertex="1">
          <mxGeometry x="480" y="32" width="150" height="260" as="geometry" />
        </mxCell>
        <mxCell id="_AAOeLuktKhKLIWwnHHZ-41" value="" style="shape=tableRow;horizontal=0;startSize=0;swimlaneHead=0;swimlaneBody=0;fillColor=none;collapsible=0;dropTarget=0;points=[[0,0.5],[1,0.5]];portConstraint=eastwest;top=0;left=0;right=0;bottom=1;" parent="_AAOeLuktKhKLIWwnHHZ-40" vertex="1">
          <mxGeometry y="30" width="150" height="50" as="geometry" />
        </mxCell>
        <mxCell id="_AAOeLuktKhKLIWwnHHZ-42" value="PK" style="shape=partialRectangle;connectable=0;fillColor=none;top=0;left=0;bottom=0;right=0;fontStyle=1;overflow=hidden;whiteSpace=wrap;html=1;" parent="_AAOeLuktKhKLIWwnHHZ-41" vertex="1">
          <mxGeometry width="30" height="50" as="geometry">
            <mxRectangle width="30" height="50" as="alternateBounds" />
          </mxGeometry>
        </mxCell>
        <mxCell id="_AAOeLuktKhKLIWwnHHZ-43" value="first_name&lt;div&gt;&lt;br&gt;&lt;div&gt;last_name&lt;/div&gt;&lt;/div&gt;&lt;div&gt;&lt;br&gt;&lt;/div&gt;" style="shape=partialRectangle;connectable=0;fillColor=none;top=0;left=0;bottom=0;right=0;align=left;spacingLeft=6;fontStyle=5;overflow=hidden;whiteSpace=wrap;html=1;" parent="_AAOeLuktKhKLIWwnHHZ-41" vertex="1">
          <mxGeometry x="30" width="120" height="50" as="geometry">
            <mxRectangle width="120" height="50" as="alternateBounds" />
          </mxGeometry>
        </mxCell>
        <mxCell id="_AAOeLuktKhKLIWwnHHZ-44" value="" style="shape=tableRow;horizontal=0;startSize=0;swimlaneHead=0;swimlaneBody=0;fillColor=none;collapsible=0;dropTarget=0;points=[[0,0.5],[1,0.5]];portConstraint=eastwest;top=0;left=0;right=0;bottom=0;" parent="_AAOeLuktKhKLIWwnHHZ-40" vertex="1">
          <mxGeometry y="80" width="150" height="30" as="geometry" />
        </mxCell>
        <mxCell id="_AAOeLuktKhKLIWwnHHZ-45" value="" style="shape=partialRectangle;connectable=0;fillColor=none;top=0;left=0;bottom=0;right=0;editable=1;overflow=hidden;whiteSpace=wrap;html=1;" parent="_AAOeLuktKhKLIWwnHHZ-44" vertex="1">
          <mxGeometry width="30" height="30" as="geometry">
            <mxRectangle width="30" height="30" as="alternateBounds" />
          </mxGeometry>
        </mxCell>
        <mxCell id="_AAOeLuktKhKLIWwnHHZ-46" value="phone_number" style="shape=partialRectangle;connectable=0;fillColor=none;top=0;left=0;bottom=0;right=0;align=left;spacingLeft=6;overflow=hidden;whiteSpace=wrap;html=1;" parent="_AAOeLuktKhKLIWwnHHZ-44" vertex="1">
          <mxGeometry x="30" width="120" height="30" as="geometry">
            <mxRectangle width="120" height="30" as="alternateBounds" />
          </mxGeometry>
        </mxCell>
        <mxCell id="_AAOeLuktKhKLIWwnHHZ-47" value="" style="shape=tableRow;horizontal=0;startSize=0;swimlaneHead=0;swimlaneBody=0;fillColor=none;collapsible=0;dropTarget=0;points=[[0,0.5],[1,0.5]];portConstraint=eastwest;top=0;left=0;right=0;bottom=0;" parent="_AAOeLuktKhKLIWwnHHZ-40" vertex="1">
          <mxGeometry y="110" width="150" height="30" as="geometry" />
        </mxCell>
        <mxCell id="_AAOeLuktKhKLIWwnHHZ-48" value="" style="shape=partialRectangle;connectable=0;fillColor=none;top=0;left=0;bottom=0;right=0;editable=1;overflow=hidden;whiteSpace=wrap;html=1;" parent="_AAOeLuktKhKLIWwnHHZ-47" vertex="1">
          <mxGeometry width="30" height="30" as="geometry">
            <mxRectangle width="30" height="30" as="alternateBounds" />
          </mxGeometry>
        </mxCell>
        <mxCell id="_AAOeLuktKhKLIWwnHHZ-49" value="birthdate" style="shape=partialRectangle;connectable=0;fillColor=none;top=0;left=0;bottom=0;right=0;align=left;spacingLeft=6;overflow=hidden;whiteSpace=wrap;html=1;" parent="_AAOeLuktKhKLIWwnHHZ-47" vertex="1">
          <mxGeometry x="30" width="120" height="30" as="geometry">
            <mxRectangle width="120" height="30" as="alternateBounds" />
          </mxGeometry>
        </mxCell>
        <mxCell id="_AAOeLuktKhKLIWwnHHZ-50" value="" style="shape=tableRow;horizontal=0;startSize=0;swimlaneHead=0;swimlaneBody=0;fillColor=none;collapsible=0;dropTarget=0;points=[[0,0.5],[1,0.5]];portConstraint=eastwest;top=0;left=0;right=0;bottom=0;" parent="_AAOeLuktKhKLIWwnHHZ-40" vertex="1">
          <mxGeometry y="140" width="150" height="30" as="geometry" />
        </mxCell>
        <mxCell id="_AAOeLuktKhKLIWwnHHZ-51" value="" style="shape=partialRectangle;connectable=0;fillColor=none;top=0;left=0;bottom=0;right=0;editable=1;overflow=hidden;whiteSpace=wrap;html=1;" parent="_AAOeLuktKhKLIWwnHHZ-50" vertex="1">
          <mxGeometry width="30" height="30" as="geometry">
            <mxRectangle width="30" height="30" as="alternateBounds" />
          </mxGeometry>
        </mxCell>
        <mxCell id="_AAOeLuktKhKLIWwnHHZ-52" value="age()" style="shape=partialRectangle;connectable=0;fillColor=none;top=0;left=0;bottom=0;right=0;align=left;spacingLeft=6;overflow=hidden;whiteSpace=wrap;html=1;" parent="_AAOeLuktKhKLIWwnHHZ-50" vertex="1">
          <mxGeometry x="30" width="120" height="30" as="geometry">
            <mxRectangle width="120" height="30" as="alternateBounds" />
          </mxGeometry>
        </mxCell>
        <mxCell id="_AAOeLuktKhKLIWwnHHZ-60" value="" style="shape=tableRow;horizontal=0;startSize=0;swimlaneHead=0;swimlaneBody=0;fillColor=none;collapsible=0;dropTarget=0;points=[[0,0.5],[1,0.5]];portConstraint=eastwest;top=0;left=0;right=0;bottom=0;" parent="_AAOeLuktKhKLIWwnHHZ-40" vertex="1">
          <mxGeometry y="170" width="150" height="30" as="geometry" />
        </mxCell>
        <mxCell id="_AAOeLuktKhKLIWwnHHZ-61" value="" style="shape=partialRectangle;connectable=0;fillColor=none;top=0;left=0;bottom=0;right=0;editable=1;overflow=hidden;" parent="_AAOeLuktKhKLIWwnHHZ-60" vertex="1">
          <mxGeometry width="30" height="30" as="geometry">
            <mxRectangle width="30" height="30" as="alternateBounds" />
          </mxGeometry>
        </mxCell>
        <mxCell id="_AAOeLuktKhKLIWwnHHZ-62" value="years_of_experience" style="shape=partialRectangle;connectable=0;fillColor=none;top=0;left=0;bottom=0;right=0;align=left;spacingLeft=6;overflow=hidden;" parent="_AAOeLuktKhKLIWwnHHZ-60" vertex="1">
          <mxGeometry x="30" width="120" height="30" as="geometry">
            <mxRectangle width="120" height="30" as="alternateBounds" />
          </mxGeometry>
        </mxCell>
        <mxCell id="_AAOeLuktKhKLIWwnHHZ-57" value="" style="shape=tableRow;horizontal=0;startSize=0;swimlaneHead=0;swimlaneBody=0;fillColor=none;collapsible=0;dropTarget=0;points=[[0,0.5],[1,0.5]];portConstraint=eastwest;top=0;left=0;right=0;bottom=0;" parent="_AAOeLuktKhKLIWwnHHZ-40" vertex="1">
          <mxGeometry y="200" width="150" height="30" as="geometry" />
        </mxCell>
        <mxCell id="_AAOeLuktKhKLIWwnHHZ-58" value="" style="shape=partialRectangle;connectable=0;fillColor=none;top=0;left=0;bottom=0;right=0;editable=1;overflow=hidden;" parent="_AAOeLuktKhKLIWwnHHZ-57" vertex="1">
          <mxGeometry width="30" height="30" as="geometry">
            <mxRectangle width="30" height="30" as="alternateBounds" />
          </mxGeometry>
        </mxCell>
        <mxCell id="_AAOeLuktKhKLIWwnHHZ-59" value="cook_status" style="shape=partialRectangle;connectable=0;fillColor=none;top=0;left=0;bottom=0;right=0;align=left;spacingLeft=6;overflow=hidden;" parent="_AAOeLuktKhKLIWwnHHZ-57" vertex="1">
          <mxGeometry x="30" width="120" height="30" as="geometry">
            <mxRectangle width="120" height="30" as="alternateBounds" />
          </mxGeometry>
        </mxCell>
        <mxCell id="_AAOeLuktKhKLIWwnHHZ-63" value="" style="shape=tableRow;horizontal=0;startSize=0;swimlaneHead=0;swimlaneBody=0;fillColor=none;collapsible=0;dropTarget=0;points=[[0,0.5],[1,0.5]];portConstraint=eastwest;top=0;left=0;right=0;bottom=0;" parent="_AAOeLuktKhKLIWwnHHZ-40" vertex="1">
          <mxGeometry y="230" width="150" height="30" as="geometry" />
        </mxCell>
        <mxCell id="_AAOeLuktKhKLIWwnHHZ-64" value="" style="shape=partialRectangle;connectable=0;fillColor=none;top=0;left=0;bottom=0;right=0;editable=1;overflow=hidden;" parent="_AAOeLuktKhKLIWwnHHZ-63" vertex="1">
          <mxGeometry width="30" height="30" as="geometry">
            <mxRectangle width="30" height="30" as="alternateBounds" />
          </mxGeometry>
        </mxCell>
        <mxCell id="_AAOeLuktKhKLIWwnHHZ-65" value="cook_photo" style="shape=partialRectangle;connectable=0;fillColor=none;top=0;left=0;bottom=0;right=0;align=left;spacingLeft=6;overflow=hidden;" parent="_AAOeLuktKhKLIWwnHHZ-63" vertex="1">
          <mxGeometry x="30" width="120" height="30" as="geometry">
            <mxRectangle width="120" height="30" as="alternateBounds" />
          </mxGeometry>
        </mxCell>
        <mxCell id="_AAOeLuktKhKLIWwnHHZ-66" value="episodes" style="shape=table;startSize=30;container=1;collapsible=1;childLayout=tableLayout;fixedRows=1;rowLines=0;fontStyle=1;align=center;resizeLast=1;html=1;" parent="1" vertex="1">
          <mxGeometry x="31.25" y="322" width="180" height="150" as="geometry" />
        </mxCell>
        <mxCell id="_AAOeLuktKhKLIWwnHHZ-67" value="" style="shape=tableRow;horizontal=0;startSize=0;swimlaneHead=0;swimlaneBody=0;fillColor=none;collapsible=0;dropTarget=0;points=[[0,0.5],[1,0.5]];portConstraint=eastwest;top=0;left=0;right=0;bottom=1;" parent="_AAOeLuktKhKLIWwnHHZ-66" vertex="1">
          <mxGeometry y="30" width="180" height="60" as="geometry" />
        </mxCell>
        <mxCell id="_AAOeLuktKhKLIWwnHHZ-68" value="PK" style="shape=partialRectangle;connectable=0;fillColor=none;top=0;left=0;bottom=0;right=0;fontStyle=1;overflow=hidden;whiteSpace=wrap;html=1;" parent="_AAOeLuktKhKLIWwnHHZ-67" vertex="1">
          <mxGeometry width="30" height="60" as="geometry">
            <mxRectangle width="30" height="60" as="alternateBounds" />
          </mxGeometry>
        </mxCell>
        <mxCell id="_AAOeLuktKhKLIWwnHHZ-69" value="episode&lt;div&gt;&lt;br&gt;&lt;/div&gt;&lt;div&gt;episode_year&lt;/div&gt;&lt;div&gt;&lt;br&gt;&lt;/div&gt;" style="shape=partialRectangle;connectable=0;fillColor=none;top=0;left=0;bottom=0;right=0;align=left;spacingLeft=6;fontStyle=5;overflow=hidden;whiteSpace=wrap;html=1;" parent="_AAOeLuktKhKLIWwnHHZ-67" vertex="1">
          <mxGeometry x="30" width="150" height="60" as="geometry">
            <mxRectangle width="150" height="60" as="alternateBounds" />
          </mxGeometry>
        </mxCell>
        <mxCell id="_AAOeLuktKhKLIWwnHHZ-70" value="" style="shape=tableRow;horizontal=0;startSize=0;swimlaneHead=0;swimlaneBody=0;fillColor=none;collapsible=0;dropTarget=0;points=[[0,0.5],[1,0.5]];portConstraint=eastwest;top=0;left=0;right=0;bottom=0;" parent="_AAOeLuktKhKLIWwnHHZ-66" vertex="1">
          <mxGeometry y="90" width="180" height="30" as="geometry" />
        </mxCell>
        <mxCell id="_AAOeLuktKhKLIWwnHHZ-71" value="" style="shape=partialRectangle;connectable=0;fillColor=none;top=0;left=0;bottom=0;right=0;editable=1;overflow=hidden;whiteSpace=wrap;html=1;" parent="_AAOeLuktKhKLIWwnHHZ-70" vertex="1">
          <mxGeometry width="30" height="30" as="geometry">
            <mxRectangle width="30" height="30" as="alternateBounds" />
          </mxGeometry>
        </mxCell>
        <mxCell id="_AAOeLuktKhKLIWwnHHZ-72" value="ep_image" style="shape=partialRectangle;connectable=0;fillColor=none;top=0;left=0;bottom=0;right=0;align=left;spacingLeft=6;overflow=hidden;whiteSpace=wrap;html=1;" parent="_AAOeLuktKhKLIWwnHHZ-70" vertex="1">
          <mxGeometry x="30" width="150" height="30" as="geometry">
            <mxRectangle width="150" height="30" as="alternateBounds" />
          </mxGeometry>
        </mxCell>
        <mxCell id="_AAOeLuktKhKLIWwnHHZ-73" value="" style="shape=tableRow;horizontal=0;startSize=0;swimlaneHead=0;swimlaneBody=0;fillColor=none;collapsible=0;dropTarget=0;points=[[0,0.5],[1,0.5]];portConstraint=eastwest;top=0;left=0;right=0;bottom=0;" parent="_AAOeLuktKhKLIWwnHHZ-66" vertex="1">
          <mxGeometry y="120" width="180" height="30" as="geometry" />
        </mxCell>
        <mxCell id="_AAOeLuktKhKLIWwnHHZ-74" value="" style="shape=partialRectangle;connectable=0;fillColor=none;top=0;left=0;bottom=0;right=0;editable=1;overflow=hidden;whiteSpace=wrap;html=1;" parent="_AAOeLuktKhKLIWwnHHZ-73" vertex="1">
          <mxGeometry width="30" height="30" as="geometry">
            <mxRectangle width="30" height="30" as="alternateBounds" />
          </mxGeometry>
        </mxCell>
        <mxCell id="_AAOeLuktKhKLIWwnHHZ-75" value="ep_deasc" style="shape=partialRectangle;connectable=0;fillColor=none;top=0;left=0;bottom=0;right=0;align=left;spacingLeft=6;overflow=hidden;whiteSpace=wrap;html=1;" parent="_AAOeLuktKhKLIWwnHHZ-73" vertex="1">
          <mxGeometry x="30" width="150" height="30" as="geometry">
            <mxRectangle width="150" height="30" as="alternateBounds" />
          </mxGeometry>
        </mxCell>
        <mxCell id="_AAOeLuktKhKLIWwnHHZ-82" value="is_a_critic" style="shape=rhombus;perimeter=rhombusPerimeter;whiteSpace=wrap;html=1;align=center;" parent="1" vertex="1">
          <mxGeometry x="61.25" y="122" width="120" height="60" as="geometry" />
        </mxCell>
        <mxCell id="_AAOeLuktKhKLIWwnHHZ-83" value="" style="shape=link;html=1;rounded=0;entryX=0.5;entryY=1;entryDx=0;entryDy=0;" parent="1" source="_AAOeLuktKhKLIWwnHHZ-66" target="_AAOeLuktKhKLIWwnHHZ-82" edge="1">
          <mxGeometry relative="1" as="geometry">
            <mxPoint x="70" y="342" as="sourcePoint" />
            <mxPoint x="230" y="342" as="targetPoint" />
          </mxGeometry>
        </mxCell>
        <mxCell id="_AAOeLuktKhKLIWwnHHZ-127" value="countries" style="shape=table;startSize=30;container=1;collapsible=0;childLayout=tableLayout;" parent="1" vertex="1">
          <mxGeometry x="790" y="342" width="120" height="70" as="geometry" />
        </mxCell>
        <mxCell id="_AAOeLuktKhKLIWwnHHZ-128" value="" style="shape=tableRow;horizontal=0;startSize=0;swimlaneHead=0;swimlaneBody=0;strokeColor=inherit;top=0;left=0;bottom=0;right=0;collapsible=0;dropTarget=0;fillColor=none;points=[[0,0.5],[1,0.5]];portConstraint=eastwest;" parent="_AAOeLuktKhKLIWwnHHZ-127" vertex="1">
          <mxGeometry y="30" width="120" height="40" as="geometry" />
        </mxCell>
        <mxCell id="_AAOeLuktKhKLIWwnHHZ-129" value="PK" style="shape=partialRectangle;html=1;whiteSpace=wrap;connectable=0;strokeColor=inherit;overflow=hidden;fillColor=none;top=0;left=0;bottom=0;right=0;pointerEvents=1;" parent="_AAOeLuktKhKLIWwnHHZ-128" vertex="1">
          <mxGeometry width="30" height="40" as="geometry">
            <mxRectangle width="30" height="40" as="alternateBounds" />
          </mxGeometry>
        </mxCell>
        <mxCell id="_AAOeLuktKhKLIWwnHHZ-130" value="country_name" style="shape=partialRectangle;html=1;whiteSpace=wrap;connectable=0;strokeColor=inherit;overflow=hidden;fillColor=none;top=0;left=0;bottom=0;right=0;pointerEvents=1;" parent="_AAOeLuktKhKLIWwnHHZ-128" vertex="1">
          <mxGeometry x="30" width="90" height="40" as="geometry">
            <mxRectangle width="90" height="40" as="alternateBounds" />
          </mxGeometry>
        </mxCell>
        <mxCell id="_AAOeLuktKhKLIWwnHHZ-131" value="expertise" style="shape=rhombus;perimeter=rhombusPerimeter;whiteSpace=wrap;html=1;align=center;" parent="1" vertex="1">
          <mxGeometry x="790" y="122" width="120" height="60" as="geometry" />
        </mxCell>
        <mxCell id="_AAOeLuktKhKLIWwnHHZ-133" value="" style="shape=link;html=1;rounded=0;entryX=0;entryY=0.5;entryDx=0;entryDy=0;" parent="1" target="_AAOeLuktKhKLIWwnHHZ-131" edge="1">
          <mxGeometry relative="1" as="geometry">
            <mxPoint x="630" y="152" as="sourcePoint" />
            <mxPoint x="890" y="302" as="targetPoint" />
          </mxGeometry>
        </mxCell>
        <mxCell id="_AAOeLuktKhKLIWwnHHZ-134" value="recipes" style="shape=table;startSize=20;container=1;collapsible=1;childLayout=tableLayout;fixedRows=1;rowLines=0;fontStyle=1;align=center;resizeLast=1;html=1;columnLines=1;" parent="1" vertex="1">
          <mxGeometry x="460" y="502" width="190" height="626" as="geometry">
            <mxRectangle x="460" y="470" width="80" height="30" as="alternateBounds" />
          </mxGeometry>
        </mxCell>
        <mxCell id="_AAOeLuktKhKLIWwnHHZ-135" value="" style="shape=tableRow;horizontal=0;startSize=0;swimlaneHead=0;swimlaneBody=0;fillColor=none;collapsible=0;dropTarget=0;points=[[0,0.5],[1,0.5]];portConstraint=eastwest;top=0;left=0;right=0;bottom=1;" parent="_AAOeLuktKhKLIWwnHHZ-134" vertex="1">
          <mxGeometry y="20" width="190" height="30" as="geometry" />
        </mxCell>
        <mxCell id="_AAOeLuktKhKLIWwnHHZ-136" value="PK" style="shape=partialRectangle;connectable=0;fillColor=none;top=0;left=0;bottom=0;right=0;fontStyle=1;overflow=hidden;whiteSpace=wrap;html=1;" parent="_AAOeLuktKhKLIWwnHHZ-135" vertex="1">
          <mxGeometry width="30" height="30" as="geometry">
            <mxRectangle width="30" height="30" as="alternateBounds" />
          </mxGeometry>
        </mxCell>
        <mxCell id="_AAOeLuktKhKLIWwnHHZ-137" value="recipe_name" style="shape=partialRectangle;connectable=0;fillColor=none;top=0;left=0;bottom=0;right=0;align=left;spacingLeft=6;fontStyle=5;overflow=hidden;whiteSpace=wrap;html=1;" parent="_AAOeLuktKhKLIWwnHHZ-135" vertex="1">
          <mxGeometry x="30" width="160" height="30" as="geometry">
            <mxRectangle width="160" height="30" as="alternateBounds" />
          </mxGeometry>
        </mxCell>
        <mxCell id="_AAOeLuktKhKLIWwnHHZ-138" value="" style="shape=tableRow;horizontal=0;startSize=0;swimlaneHead=0;swimlaneBody=0;fillColor=none;collapsible=0;dropTarget=0;points=[[0,0.5],[1,0.5]];portConstraint=eastwest;top=0;left=0;right=0;bottom=0;" parent="_AAOeLuktKhKLIWwnHHZ-134" vertex="1">
          <mxGeometry y="50" width="190" height="25" as="geometry" />
        </mxCell>
        <mxCell id="_AAOeLuktKhKLIWwnHHZ-139" value="" style="shape=partialRectangle;connectable=0;fillColor=none;top=0;left=0;bottom=0;right=0;editable=1;overflow=hidden;whiteSpace=wrap;html=1;" parent="_AAOeLuktKhKLIWwnHHZ-138" vertex="1">
          <mxGeometry width="30" height="25" as="geometry">
            <mxRectangle width="30" height="25" as="alternateBounds" />
          </mxGeometry>
        </mxCell>
        <mxCell id="_AAOeLuktKhKLIWwnHHZ-140" value="recipe_type" style="shape=partialRectangle;connectable=0;fillColor=none;top=0;left=0;bottom=0;right=0;align=left;spacingLeft=6;overflow=hidden;whiteSpace=wrap;html=1;" parent="_AAOeLuktKhKLIWwnHHZ-138" vertex="1">
          <mxGeometry x="30" width="160" height="25" as="geometry">
            <mxRectangle width="160" height="25" as="alternateBounds" />
          </mxGeometry>
        </mxCell>
        <mxCell id="_AAOeLuktKhKLIWwnHHZ-141" value="" style="shape=tableRow;horizontal=0;startSize=0;swimlaneHead=0;swimlaneBody=0;fillColor=none;collapsible=0;dropTarget=0;points=[[0,0.5],[1,0.5]];portConstraint=eastwest;top=0;left=0;right=0;bottom=0;" parent="_AAOeLuktKhKLIWwnHHZ-134" vertex="1">
          <mxGeometry y="75" width="190" height="25" as="geometry" />
        </mxCell>
        <mxCell id="_AAOeLuktKhKLIWwnHHZ-142" value="" style="shape=partialRectangle;connectable=0;fillColor=none;top=0;left=0;bottom=0;right=0;editable=1;overflow=hidden;whiteSpace=wrap;html=1;" parent="_AAOeLuktKhKLIWwnHHZ-141" vertex="1">
          <mxGeometry width="30" height="25" as="geometry">
            <mxRectangle width="30" height="25" as="alternateBounds" />
          </mxGeometry>
        </mxCell>
        <mxCell id="_AAOeLuktKhKLIWwnHHZ-143" value="recipe_difficulty" style="shape=partialRectangle;connectable=0;fillColor=none;top=0;left=0;bottom=0;right=0;align=left;spacingLeft=6;overflow=hidden;whiteSpace=wrap;html=1;" parent="_AAOeLuktKhKLIWwnHHZ-141" vertex="1">
          <mxGeometry x="30" width="160" height="25" as="geometry">
            <mxRectangle width="160" height="25" as="alternateBounds" />
          </mxGeometry>
        </mxCell>
        <mxCell id="_AAOeLuktKhKLIWwnHHZ-144" value="" style="shape=tableRow;horizontal=0;startSize=0;swimlaneHead=0;swimlaneBody=0;fillColor=none;collapsible=0;dropTarget=0;points=[[0,0.5],[1,0.5]];portConstraint=eastwest;top=0;left=0;right=0;bottom=0;" parent="_AAOeLuktKhKLIWwnHHZ-134" vertex="1">
          <mxGeometry y="100" width="190" height="25" as="geometry" />
        </mxCell>
        <mxCell id="_AAOeLuktKhKLIWwnHHZ-145" value="" style="shape=partialRectangle;connectable=0;fillColor=none;top=0;left=0;bottom=0;right=0;editable=1;overflow=hidden;whiteSpace=wrap;html=1;" parent="_AAOeLuktKhKLIWwnHHZ-144" vertex="1">
          <mxGeometry width="30" height="25" as="geometry">
            <mxRectangle width="30" height="25" as="alternateBounds" />
          </mxGeometry>
        </mxCell>
        <mxCell id="_AAOeLuktKhKLIWwnHHZ-146" value="recipe_desc" style="shape=partialRectangle;connectable=0;fillColor=none;top=0;left=0;bottom=0;right=0;align=left;spacingLeft=6;overflow=hidden;whiteSpace=wrap;html=1;" parent="_AAOeLuktKhKLIWwnHHZ-144" vertex="1">
          <mxGeometry x="30" width="160" height="25" as="geometry">
            <mxRectangle width="160" height="25" as="alternateBounds" />
          </mxGeometry>
        </mxCell>
        <mxCell id="XmS-rvhfOjhDCMI8ourb-75" style="shape=tableRow;horizontal=0;startSize=0;swimlaneHead=0;swimlaneBody=0;fillColor=none;collapsible=0;dropTarget=0;points=[[0,0.5],[1,0.5]];portConstraint=eastwest;top=0;left=0;right=0;bottom=0;" vertex="1" parent="_AAOeLuktKhKLIWwnHHZ-134">
          <mxGeometry y="125" width="190" height="25" as="geometry" />
        </mxCell>
        <mxCell id="XmS-rvhfOjhDCMI8ourb-76" style="shape=partialRectangle;connectable=0;fillColor=none;top=0;left=0;bottom=0;right=0;editable=1;overflow=hidden;whiteSpace=wrap;html=1;" vertex="1" parent="XmS-rvhfOjhDCMI8ourb-75">
          <mxGeometry width="30" height="25" as="geometry">
            <mxRectangle width="30" height="25" as="alternateBounds" />
          </mxGeometry>
        </mxCell>
        <mxCell id="XmS-rvhfOjhDCMI8ourb-77" value="recipe_tips" style="shape=partialRectangle;connectable=0;fillColor=none;top=0;left=0;bottom=0;right=0;align=left;spacingLeft=6;overflow=hidden;whiteSpace=wrap;html=1;" vertex="1" parent="XmS-rvhfOjhDCMI8ourb-75">
          <mxGeometry x="30" width="160" height="25" as="geometry">
            <mxRectangle width="160" height="25" as="alternateBounds" />
          </mxGeometry>
        </mxCell>
        <mxCell id="_AAOeLuktKhKLIWwnHHZ-163" value="" style="shape=tableRow;horizontal=0;startSize=0;swimlaneHead=0;swimlaneBody=0;fillColor=none;collapsible=0;dropTarget=0;points=[[0,0.5],[1,0.5]];portConstraint=eastwest;top=0;left=0;right=0;bottom=0;" parent="_AAOeLuktKhKLIWwnHHZ-134" vertex="1">
          <mxGeometry y="150" width="190" height="25" as="geometry" />
        </mxCell>
        <mxCell id="_AAOeLuktKhKLIWwnHHZ-164" value="" style="shape=partialRectangle;connectable=0;fillColor=none;top=0;left=0;bottom=0;right=0;editable=1;overflow=hidden;" parent="_AAOeLuktKhKLIWwnHHZ-163" vertex="1">
          <mxGeometry width="30" height="25" as="geometry">
            <mxRectangle width="30" height="25" as="alternateBounds" />
          </mxGeometry>
        </mxCell>
        <mxCell id="_AAOeLuktKhKLIWwnHHZ-165" value="      recipe_tip1" style="shape=partialRectangle;connectable=0;fillColor=none;top=0;left=0;bottom=0;right=0;align=left;spacingLeft=6;overflow=hidden;" parent="_AAOeLuktKhKLIWwnHHZ-163" vertex="1">
          <mxGeometry x="30" width="160" height="25" as="geometry">
            <mxRectangle width="160" height="25" as="alternateBounds" />
          </mxGeometry>
        </mxCell>
        <mxCell id="_AAOeLuktKhKLIWwnHHZ-159" value="" style="shape=tableRow;horizontal=0;startSize=0;swimlaneHead=0;swimlaneBody=0;fillColor=none;collapsible=0;dropTarget=0;points=[[0,0.5],[1,0.5]];portConstraint=eastwest;top=0;left=0;right=0;bottom=0;" parent="_AAOeLuktKhKLIWwnHHZ-134" vertex="1">
          <mxGeometry y="175" width="190" height="25" as="geometry" />
        </mxCell>
        <mxCell id="_AAOeLuktKhKLIWwnHHZ-160" value="" style="shape=partialRectangle;connectable=0;fillColor=none;top=0;left=0;bottom=0;right=0;editable=1;overflow=hidden;" parent="_AAOeLuktKhKLIWwnHHZ-159" vertex="1">
          <mxGeometry width="30" height="25" as="geometry">
            <mxRectangle width="30" height="25" as="alternateBounds" />
          </mxGeometry>
        </mxCell>
        <mxCell id="_AAOeLuktKhKLIWwnHHZ-161" value="      recipe_tip2" style="shape=partialRectangle;connectable=0;fillColor=none;top=0;left=0;bottom=0;right=0;align=left;spacingLeft=6;overflow=hidden;" parent="_AAOeLuktKhKLIWwnHHZ-159" vertex="1">
          <mxGeometry x="30" width="160" height="25" as="geometry">
            <mxRectangle width="160" height="25" as="alternateBounds" />
          </mxGeometry>
        </mxCell>
        <mxCell id="_AAOeLuktKhKLIWwnHHZ-155" value="" style="shape=tableRow;horizontal=0;startSize=0;swimlaneHead=0;swimlaneBody=0;fillColor=none;collapsible=0;dropTarget=0;points=[[0,0.5],[1,0.5]];portConstraint=eastwest;top=0;left=0;right=0;bottom=0;" parent="_AAOeLuktKhKLIWwnHHZ-134" vertex="1">
          <mxGeometry y="200" width="190" height="25" as="geometry" />
        </mxCell>
        <mxCell id="_AAOeLuktKhKLIWwnHHZ-156" value="" style="shape=partialRectangle;connectable=0;fillColor=none;top=0;left=0;bottom=0;right=0;editable=1;overflow=hidden;" parent="_AAOeLuktKhKLIWwnHHZ-155" vertex="1">
          <mxGeometry width="30" height="25" as="geometry">
            <mxRectangle width="30" height="25" as="alternateBounds" />
          </mxGeometry>
        </mxCell>
        <mxCell id="_AAOeLuktKhKLIWwnHHZ-157" value="      recipe_tip3" style="shape=partialRectangle;connectable=0;fillColor=none;top=0;left=0;bottom=0;right=0;align=left;spacingLeft=6;overflow=hidden;" parent="_AAOeLuktKhKLIWwnHHZ-155" vertex="1">
          <mxGeometry x="30" width="160" height="25" as="geometry">
            <mxRectangle width="160" height="25" as="alternateBounds" />
          </mxGeometry>
        </mxCell>
        <mxCell id="_AAOeLuktKhKLIWwnHHZ-170" value="" style="shape=tableRow;horizontal=0;startSize=0;swimlaneHead=0;swimlaneBody=0;fillColor=none;collapsible=0;dropTarget=0;points=[[0,0.5],[1,0.5]];portConstraint=eastwest;top=0;left=0;right=0;bottom=0;" parent="_AAOeLuktKhKLIWwnHHZ-134" vertex="1">
          <mxGeometry y="225" width="190" height="25" as="geometry" />
        </mxCell>
        <mxCell id="_AAOeLuktKhKLIWwnHHZ-171" value="" style="shape=partialRectangle;connectable=0;fillColor=none;top=0;left=0;bottom=0;right=0;editable=1;overflow=hidden;" parent="_AAOeLuktKhKLIWwnHHZ-170" vertex="1">
          <mxGeometry width="30" height="25" as="geometry">
            <mxRectangle width="30" height="25" as="alternateBounds" />
          </mxGeometry>
        </mxCell>
        <mxCell id="_AAOeLuktKhKLIWwnHHZ-172" value="recipe_proteins" style="shape=partialRectangle;connectable=0;fillColor=none;top=0;left=0;bottom=0;right=0;align=left;spacingLeft=6;overflow=hidden;" parent="_AAOeLuktKhKLIWwnHHZ-170" vertex="1">
          <mxGeometry x="30" width="160" height="25" as="geometry">
            <mxRectangle width="160" height="25" as="alternateBounds" />
          </mxGeometry>
        </mxCell>
        <mxCell id="_AAOeLuktKhKLIWwnHHZ-179" value="" style="shape=tableRow;horizontal=0;startSize=0;swimlaneHead=0;swimlaneBody=0;fillColor=none;collapsible=0;dropTarget=0;points=[[0,0.5],[1,0.5]];portConstraint=eastwest;top=0;left=0;right=0;bottom=0;" parent="_AAOeLuktKhKLIWwnHHZ-134" vertex="1">
          <mxGeometry y="250" width="190" height="25" as="geometry" />
        </mxCell>
        <mxCell id="_AAOeLuktKhKLIWwnHHZ-180" value="" style="shape=partialRectangle;connectable=0;fillColor=none;top=0;left=0;bottom=0;right=0;editable=1;overflow=hidden;" parent="_AAOeLuktKhKLIWwnHHZ-179" vertex="1">
          <mxGeometry width="30" height="25" as="geometry">
            <mxRectangle width="30" height="25" as="alternateBounds" />
          </mxGeometry>
        </mxCell>
        <mxCell id="_AAOeLuktKhKLIWwnHHZ-181" value="recipe_carbs" style="shape=partialRectangle;connectable=0;fillColor=none;top=0;left=0;bottom=0;right=0;align=left;spacingLeft=6;overflow=hidden;" parent="_AAOeLuktKhKLIWwnHHZ-179" vertex="1">
          <mxGeometry x="30" width="160" height="25" as="geometry">
            <mxRectangle width="160" height="25" as="alternateBounds" />
          </mxGeometry>
        </mxCell>
        <mxCell id="_AAOeLuktKhKLIWwnHHZ-176" value="" style="shape=tableRow;horizontal=0;startSize=0;swimlaneHead=0;swimlaneBody=0;fillColor=none;collapsible=0;dropTarget=0;points=[[0,0.5],[1,0.5]];portConstraint=eastwest;top=0;left=0;right=0;bottom=0;" parent="_AAOeLuktKhKLIWwnHHZ-134" vertex="1">
          <mxGeometry y="275" width="190" height="25" as="geometry" />
        </mxCell>
        <mxCell id="_AAOeLuktKhKLIWwnHHZ-177" value="" style="shape=partialRectangle;connectable=0;fillColor=none;top=0;left=0;bottom=0;right=0;editable=1;overflow=hidden;" parent="_AAOeLuktKhKLIWwnHHZ-176" vertex="1">
          <mxGeometry width="30" height="25" as="geometry">
            <mxRectangle width="30" height="25" as="alternateBounds" />
          </mxGeometry>
        </mxCell>
        <mxCell id="_AAOeLuktKhKLIWwnHHZ-178" value="recipe_fats" style="shape=partialRectangle;connectable=0;fillColor=none;top=0;left=0;bottom=0;right=0;align=left;spacingLeft=6;overflow=hidden;" parent="_AAOeLuktKhKLIWwnHHZ-176" vertex="1">
          <mxGeometry x="30" width="160" height="25" as="geometry">
            <mxRectangle width="160" height="25" as="alternateBounds" />
          </mxGeometry>
        </mxCell>
        <mxCell id="_AAOeLuktKhKLIWwnHHZ-173" value="" style="shape=tableRow;horizontal=0;startSize=0;swimlaneHead=0;swimlaneBody=0;fillColor=none;collapsible=0;dropTarget=0;points=[[0,0.5],[1,0.5]];portConstraint=eastwest;top=0;left=0;right=0;bottom=0;" parent="_AAOeLuktKhKLIWwnHHZ-134" vertex="1">
          <mxGeometry y="300" width="190" height="25" as="geometry" />
        </mxCell>
        <mxCell id="_AAOeLuktKhKLIWwnHHZ-174" value="" style="shape=partialRectangle;connectable=0;fillColor=none;top=0;left=0;bottom=0;right=0;editable=1;overflow=hidden;" parent="_AAOeLuktKhKLIWwnHHZ-173" vertex="1">
          <mxGeometry width="30" height="25" as="geometry">
            <mxRectangle width="30" height="25" as="alternateBounds" />
          </mxGeometry>
        </mxCell>
        <mxCell id="_AAOeLuktKhKLIWwnHHZ-175" value="recipe_calories()" style="shape=partialRectangle;connectable=0;fillColor=none;top=0;left=0;bottom=0;right=0;align=left;spacingLeft=6;overflow=hidden;" parent="_AAOeLuktKhKLIWwnHHZ-173" vertex="1">
          <mxGeometry x="30" width="160" height="25" as="geometry">
            <mxRectangle width="160" height="25" as="alternateBounds" />
          </mxGeometry>
        </mxCell>
        <mxCell id="_AAOeLuktKhKLIWwnHHZ-167" value="" style="shape=tableRow;horizontal=0;startSize=0;swimlaneHead=0;swimlaneBody=0;fillColor=none;collapsible=0;dropTarget=0;points=[[0,0.5],[1,0.5]];portConstraint=eastwest;top=0;left=0;right=0;bottom=0;" parent="_AAOeLuktKhKLIWwnHHZ-134" vertex="1">
          <mxGeometry y="325" width="190" height="25" as="geometry" />
        </mxCell>
        <mxCell id="_AAOeLuktKhKLIWwnHHZ-168" value="" style="shape=partialRectangle;connectable=0;fillColor=none;top=0;left=0;bottom=0;right=0;editable=1;overflow=hidden;" parent="_AAOeLuktKhKLIWwnHHZ-167" vertex="1">
          <mxGeometry width="30" height="25" as="geometry">
            <mxRectangle width="30" height="25" as="alternateBounds" />
          </mxGeometry>
        </mxCell>
        <mxCell id="_AAOeLuktKhKLIWwnHHZ-169" value="country_name" style="shape=partialRectangle;connectable=0;fillColor=none;top=0;left=0;bottom=0;right=0;align=left;spacingLeft=6;overflow=hidden;" parent="_AAOeLuktKhKLIWwnHHZ-167" vertex="1">
          <mxGeometry x="30" width="160" height="25" as="geometry">
            <mxRectangle width="160" height="25" as="alternateBounds" />
          </mxGeometry>
        </mxCell>
        <mxCell id="_AAOeLuktKhKLIWwnHHZ-185" value="" style="shape=tableRow;horizontal=0;startSize=0;swimlaneHead=0;swimlaneBody=0;fillColor=none;collapsible=0;dropTarget=0;points=[[0,0.5],[1,0.5]];portConstraint=eastwest;top=0;left=0;right=0;bottom=0;" parent="_AAOeLuktKhKLIWwnHHZ-134" vertex="1">
          <mxGeometry y="350" width="190" height="25" as="geometry" />
        </mxCell>
        <mxCell id="_AAOeLuktKhKLIWwnHHZ-186" value="" style="shape=partialRectangle;connectable=0;fillColor=none;top=0;left=0;bottom=0;right=0;editable=1;overflow=hidden;" parent="_AAOeLuktKhKLIWwnHHZ-185" vertex="1">
          <mxGeometry width="30" height="25" as="geometry">
            <mxRectangle width="30" height="25" as="alternateBounds" />
          </mxGeometry>
        </mxCell>
        <mxCell id="_AAOeLuktKhKLIWwnHHZ-187" value="recipe_photos" style="shape=partialRectangle;connectable=0;fillColor=none;top=0;left=0;bottom=0;right=0;align=left;spacingLeft=6;overflow=hidden;" parent="_AAOeLuktKhKLIWwnHHZ-185" vertex="1">
          <mxGeometry x="30" width="160" height="25" as="geometry">
            <mxRectangle width="160" height="25" as="alternateBounds" />
          </mxGeometry>
        </mxCell>
        <mxCell id="_AAOeLuktKhKLIWwnHHZ-191" value="" style="shape=tableRow;horizontal=0;startSize=0;swimlaneHead=0;swimlaneBody=0;fillColor=none;collapsible=0;dropTarget=0;points=[[0,0.5],[1,0.5]];portConstraint=eastwest;top=0;left=0;right=0;bottom=0;" parent="_AAOeLuktKhKLIWwnHHZ-134" vertex="1">
          <mxGeometry y="375" width="190" height="25" as="geometry" />
        </mxCell>
        <mxCell id="_AAOeLuktKhKLIWwnHHZ-192" value="" style="shape=partialRectangle;connectable=0;fillColor=none;top=0;left=0;bottom=0;right=0;editable=1;overflow=hidden;" parent="_AAOeLuktKhKLIWwnHHZ-191" vertex="1">
          <mxGeometry width="30" height="25" as="geometry">
            <mxRectangle width="30" height="25" as="alternateBounds" />
          </mxGeometry>
        </mxCell>
        <mxCell id="_AAOeLuktKhKLIWwnHHZ-193" value="recipe_photo_desc" style="shape=partialRectangle;connectable=0;fillColor=none;top=0;left=0;bottom=0;right=0;align=left;spacingLeft=6;overflow=hidden;" parent="_AAOeLuktKhKLIWwnHHZ-191" vertex="1">
          <mxGeometry x="30" width="160" height="25" as="geometry">
            <mxRectangle width="160" height="25" as="alternateBounds" />
          </mxGeometry>
        </mxCell>
        <mxCell id="XmS-rvhfOjhDCMI8ourb-78" style="shape=tableRow;horizontal=0;startSize=0;swimlaneHead=0;swimlaneBody=0;fillColor=none;collapsible=0;dropTarget=0;points=[[0,0.5],[1,0.5]];portConstraint=eastwest;top=0;left=0;right=0;bottom=0;" vertex="1" parent="_AAOeLuktKhKLIWwnHHZ-134">
          <mxGeometry y="400" width="190" height="25" as="geometry" />
        </mxCell>
        <mxCell id="XmS-rvhfOjhDCMI8ourb-79" style="shape=partialRectangle;connectable=0;fillColor=none;top=0;left=0;bottom=0;right=0;editable=1;overflow=hidden;" vertex="1" parent="XmS-rvhfOjhDCMI8ourb-78">
          <mxGeometry width="30" height="25" as="geometry">
            <mxRectangle width="30" height="25" as="alternateBounds" />
          </mxGeometry>
        </mxCell>
        <mxCell id="XmS-rvhfOjhDCMI8ourb-80" value="time_needed" style="shape=partialRectangle;connectable=0;fillColor=none;top=0;left=0;bottom=0;right=0;align=left;spacingLeft=6;overflow=hidden;" vertex="1" parent="XmS-rvhfOjhDCMI8ourb-78">
          <mxGeometry x="30" width="160" height="25" as="geometry">
            <mxRectangle width="160" height="25" as="alternateBounds" />
          </mxGeometry>
        </mxCell>
        <mxCell id="_AAOeLuktKhKLIWwnHHZ-188" value="" style="shape=tableRow;horizontal=0;startSize=0;swimlaneHead=0;swimlaneBody=0;fillColor=none;collapsible=0;dropTarget=0;points=[[0,0.5],[1,0.5]];portConstraint=eastwest;top=0;left=0;right=0;bottom=0;" parent="_AAOeLuktKhKLIWwnHHZ-134" vertex="1">
          <mxGeometry y="425" width="190" height="25" as="geometry" />
        </mxCell>
        <mxCell id="_AAOeLuktKhKLIWwnHHZ-189" value="" style="shape=partialRectangle;connectable=0;fillColor=none;top=0;left=0;bottom=0;right=0;editable=1;overflow=hidden;" parent="_AAOeLuktKhKLIWwnHHZ-188" vertex="1">
          <mxGeometry width="30" height="25" as="geometry">
            <mxRectangle width="30" height="25" as="alternateBounds" />
          </mxGeometry>
        </mxCell>
        <mxCell id="_AAOeLuktKhKLIWwnHHZ-190" value="      prep_time" style="shape=partialRectangle;connectable=0;fillColor=none;top=0;left=0;bottom=0;right=0;align=left;spacingLeft=6;overflow=hidden;" parent="_AAOeLuktKhKLIWwnHHZ-188" vertex="1">
          <mxGeometry x="30" width="160" height="25" as="geometry">
            <mxRectangle width="160" height="25" as="alternateBounds" />
          </mxGeometry>
        </mxCell>
        <mxCell id="_AAOeLuktKhKLIWwnHHZ-197" value="" style="shape=tableRow;horizontal=0;startSize=0;swimlaneHead=0;swimlaneBody=0;fillColor=none;collapsible=0;dropTarget=0;points=[[0,0.5],[1,0.5]];portConstraint=eastwest;top=0;left=0;right=0;bottom=0;" parent="_AAOeLuktKhKLIWwnHHZ-134" vertex="1">
          <mxGeometry y="450" width="190" height="25" as="geometry" />
        </mxCell>
        <mxCell id="_AAOeLuktKhKLIWwnHHZ-198" value="" style="shape=partialRectangle;connectable=0;fillColor=none;top=0;left=0;bottom=0;right=0;editable=1;overflow=hidden;" parent="_AAOeLuktKhKLIWwnHHZ-197" vertex="1">
          <mxGeometry width="30" height="25" as="geometry">
            <mxRectangle width="30" height="25" as="alternateBounds" />
          </mxGeometry>
        </mxCell>
        <mxCell id="_AAOeLuktKhKLIWwnHHZ-199" value="      execution_time" style="shape=partialRectangle;connectable=0;fillColor=none;top=0;left=0;bottom=0;right=0;align=left;spacingLeft=6;overflow=hidden;" parent="_AAOeLuktKhKLIWwnHHZ-197" vertex="1">
          <mxGeometry x="30" width="160" height="25" as="geometry">
            <mxRectangle width="160" height="25" as="alternateBounds" />
          </mxGeometry>
        </mxCell>
        <mxCell id="_AAOeLuktKhKLIWwnHHZ-194" value="" style="shape=tableRow;horizontal=0;startSize=0;swimlaneHead=0;swimlaneBody=0;fillColor=none;collapsible=0;dropTarget=0;points=[[0,0.5],[1,0.5]];portConstraint=eastwest;top=0;left=0;right=0;bottom=0;" parent="_AAOeLuktKhKLIWwnHHZ-134" vertex="1">
          <mxGeometry y="475" width="190" height="25" as="geometry" />
        </mxCell>
        <mxCell id="_AAOeLuktKhKLIWwnHHZ-195" value="" style="shape=partialRectangle;connectable=0;fillColor=none;top=0;left=0;bottom=0;right=0;editable=1;overflow=hidden;" parent="_AAOeLuktKhKLIWwnHHZ-194" vertex="1">
          <mxGeometry width="30" height="25" as="geometry">
            <mxRectangle width="30" height="25" as="alternateBounds" />
          </mxGeometry>
        </mxCell>
        <mxCell id="_AAOeLuktKhKLIWwnHHZ-196" value="portions" style="shape=partialRectangle;connectable=0;fillColor=none;top=0;left=0;bottom=0;right=0;align=left;spacingLeft=6;overflow=hidden;" parent="_AAOeLuktKhKLIWwnHHZ-194" vertex="1">
          <mxGeometry x="30" width="160" height="25" as="geometry">
            <mxRectangle width="160" height="25" as="alternateBounds" />
          </mxGeometry>
        </mxCell>
        <mxCell id="_AAOeLuktKhKLIWwnHHZ-219" value="" style="shape=tableRow;horizontal=0;startSize=0;swimlaneHead=0;swimlaneBody=0;fillColor=none;collapsible=0;dropTarget=0;points=[[0,0.5],[1,0.5]];portConstraint=eastwest;top=0;left=0;right=0;bottom=0;" parent="_AAOeLuktKhKLIWwnHHZ-134" vertex="1">
          <mxGeometry y="500" width="190" height="25" as="geometry" />
        </mxCell>
        <mxCell id="_AAOeLuktKhKLIWwnHHZ-220" value="" style="shape=partialRectangle;connectable=0;fillColor=none;top=0;left=0;bottom=0;right=0;editable=1;overflow=hidden;" parent="_AAOeLuktKhKLIWwnHHZ-219" vertex="1">
          <mxGeometry width="30" height="25" as="geometry">
            <mxRectangle width="30" height="25" as="alternateBounds" />
          </mxGeometry>
        </mxCell>
        <mxCell id="_AAOeLuktKhKLIWwnHHZ-221" value="{tags}" style="shape=partialRectangle;connectable=0;fillColor=none;top=0;left=0;bottom=0;right=0;align=left;spacingLeft=6;overflow=hidden;" parent="_AAOeLuktKhKLIWwnHHZ-219" vertex="1">
          <mxGeometry x="30" width="160" height="25" as="geometry">
            <mxRectangle width="160" height="25" as="alternateBounds" />
          </mxGeometry>
        </mxCell>
        <mxCell id="_AAOeLuktKhKLIWwnHHZ-216" value="" style="shape=tableRow;horizontal=0;startSize=0;swimlaneHead=0;swimlaneBody=0;fillColor=none;collapsible=0;dropTarget=0;points=[[0,0.5],[1,0.5]];portConstraint=eastwest;top=0;left=0;right=0;bottom=0;" parent="_AAOeLuktKhKLIWwnHHZ-134" vertex="1">
          <mxGeometry y="525" width="190" height="25" as="geometry" />
        </mxCell>
        <mxCell id="_AAOeLuktKhKLIWwnHHZ-217" value="" style="shape=partialRectangle;connectable=0;fillColor=none;top=0;left=0;bottom=0;right=0;editable=1;overflow=hidden;" parent="_AAOeLuktKhKLIWwnHHZ-216" vertex="1">
          <mxGeometry width="30" height="25" as="geometry">
            <mxRectangle width="30" height="25" as="alternateBounds" />
          </mxGeometry>
        </mxCell>
        <mxCell id="_AAOeLuktKhKLIWwnHHZ-218" value="recipe_steps" style="shape=partialRectangle;connectable=0;fillColor=none;top=0;left=0;bottom=0;right=0;align=left;spacingLeft=6;overflow=hidden;" parent="_AAOeLuktKhKLIWwnHHZ-216" vertex="1">
          <mxGeometry x="30" width="160" height="25" as="geometry">
            <mxRectangle width="160" height="25" as="alternateBounds" />
          </mxGeometry>
        </mxCell>
        <mxCell id="_AAOeLuktKhKLIWwnHHZ-225" value="" style="shape=tableRow;horizontal=0;startSize=0;swimlaneHead=0;swimlaneBody=0;fillColor=none;collapsible=0;dropTarget=0;points=[[0,0.5],[1,0.5]];portConstraint=eastwest;top=0;left=0;right=0;bottom=0;" parent="_AAOeLuktKhKLIWwnHHZ-134" vertex="1">
          <mxGeometry y="550" width="190" height="26" as="geometry" />
        </mxCell>
        <mxCell id="_AAOeLuktKhKLIWwnHHZ-226" value="" style="shape=partialRectangle;connectable=0;fillColor=none;top=0;left=0;bottom=0;right=0;editable=1;overflow=hidden;" parent="_AAOeLuktKhKLIWwnHHZ-225" vertex="1">
          <mxGeometry width="30" height="26" as="geometry">
            <mxRectangle width="30" height="26" as="alternateBounds" />
          </mxGeometry>
        </mxCell>
        <mxCell id="_AAOeLuktKhKLIWwnHHZ-227" value="      step_num" style="shape=partialRectangle;connectable=0;fillColor=none;top=0;left=0;bottom=0;right=0;align=left;spacingLeft=6;overflow=hidden;" parent="_AAOeLuktKhKLIWwnHHZ-225" vertex="1">
          <mxGeometry x="30" width="160" height="26" as="geometry">
            <mxRectangle width="160" height="26" as="alternateBounds" />
          </mxGeometry>
        </mxCell>
        <mxCell id="_AAOeLuktKhKLIWwnHHZ-228" value="" style="shape=tableRow;horizontal=0;startSize=0;swimlaneHead=0;swimlaneBody=0;fillColor=none;collapsible=0;dropTarget=0;points=[[0,0.5],[1,0.5]];portConstraint=eastwest;top=0;left=0;right=0;bottom=0;" parent="_AAOeLuktKhKLIWwnHHZ-134" vertex="1">
          <mxGeometry y="576" width="190" height="25" as="geometry" />
        </mxCell>
        <mxCell id="_AAOeLuktKhKLIWwnHHZ-229" value="" style="shape=partialRectangle;connectable=0;fillColor=none;top=0;left=0;bottom=0;right=0;editable=1;overflow=hidden;" parent="_AAOeLuktKhKLIWwnHHZ-228" vertex="1">
          <mxGeometry width="30" height="25" as="geometry">
            <mxRectangle width="30" height="25" as="alternateBounds" />
          </mxGeometry>
        </mxCell>
        <mxCell id="_AAOeLuktKhKLIWwnHHZ-230" value="      instruction" style="shape=partialRectangle;connectable=0;fillColor=none;top=0;left=0;bottom=0;right=0;align=left;spacingLeft=6;overflow=hidden;" parent="_AAOeLuktKhKLIWwnHHZ-228" vertex="1">
          <mxGeometry x="30" width="160" height="25" as="geometry">
            <mxRectangle width="160" height="25" as="alternateBounds" />
          </mxGeometry>
        </mxCell>
        <mxCell id="_AAOeLuktKhKLIWwnHHZ-231" value="" style="shape=tableRow;horizontal=0;startSize=0;swimlaneHead=0;swimlaneBody=0;fillColor=none;collapsible=0;dropTarget=0;points=[[0,0.5],[1,0.5]];portConstraint=eastwest;top=0;left=0;right=0;bottom=0;" parent="_AAOeLuktKhKLIWwnHHZ-134" vertex="1">
          <mxGeometry y="601" width="190" height="25" as="geometry" />
        </mxCell>
        <mxCell id="_AAOeLuktKhKLIWwnHHZ-232" value="" style="shape=partialRectangle;connectable=0;fillColor=none;top=0;left=0;bottom=0;right=0;editable=1;overflow=hidden;" parent="_AAOeLuktKhKLIWwnHHZ-231" vertex="1">
          <mxGeometry width="30" height="25" as="geometry">
            <mxRectangle width="30" height="25" as="alternateBounds" />
          </mxGeometry>
        </mxCell>
        <mxCell id="_AAOeLuktKhKLIWwnHHZ-233" value="{meal_type}" style="shape=partialRectangle;connectable=0;fillColor=none;top=0;left=0;bottom=0;right=0;align=left;spacingLeft=6;overflow=hidden;" parent="_AAOeLuktKhKLIWwnHHZ-231" vertex="1">
          <mxGeometry x="30" width="160" height="25" as="geometry">
            <mxRectangle width="160" height="25" as="alternateBounds" />
          </mxGeometry>
        </mxCell>
        <mxCell id="_AAOeLuktKhKLIWwnHHZ-200" value="equipment" style="shape=table;startSize=30;container=1;collapsible=1;childLayout=tableLayout;fixedRows=1;rowLines=0;fontStyle=1;align=center;resizeLast=1;html=1;" parent="1" vertex="1">
          <mxGeometry x="50" y="842" width="180" height="150" as="geometry" />
        </mxCell>
        <mxCell id="_AAOeLuktKhKLIWwnHHZ-201" value="" style="shape=tableRow;horizontal=0;startSize=0;swimlaneHead=0;swimlaneBody=0;fillColor=none;collapsible=0;dropTarget=0;points=[[0,0.5],[1,0.5]];portConstraint=eastwest;top=0;left=0;right=0;bottom=1;" parent="_AAOeLuktKhKLIWwnHHZ-200" vertex="1">
          <mxGeometry y="30" width="180" height="30" as="geometry" />
        </mxCell>
        <mxCell id="_AAOeLuktKhKLIWwnHHZ-202" value="PK" style="shape=partialRectangle;connectable=0;fillColor=none;top=0;left=0;bottom=0;right=0;fontStyle=1;overflow=hidden;whiteSpace=wrap;html=1;" parent="_AAOeLuktKhKLIWwnHHZ-201" vertex="1">
          <mxGeometry width="30" height="30" as="geometry">
            <mxRectangle width="30" height="30" as="alternateBounds" />
          </mxGeometry>
        </mxCell>
        <mxCell id="_AAOeLuktKhKLIWwnHHZ-203" value="equipment_name" style="shape=partialRectangle;connectable=0;fillColor=none;top=0;left=0;bottom=0;right=0;align=left;spacingLeft=6;fontStyle=5;overflow=hidden;whiteSpace=wrap;html=1;" parent="_AAOeLuktKhKLIWwnHHZ-201" vertex="1">
          <mxGeometry x="30" width="150" height="30" as="geometry">
            <mxRectangle width="150" height="30" as="alternateBounds" />
          </mxGeometry>
        </mxCell>
        <mxCell id="_AAOeLuktKhKLIWwnHHZ-204" value="" style="shape=tableRow;horizontal=0;startSize=0;swimlaneHead=0;swimlaneBody=0;fillColor=none;collapsible=0;dropTarget=0;points=[[0,0.5],[1,0.5]];portConstraint=eastwest;top=0;left=0;right=0;bottom=0;" parent="_AAOeLuktKhKLIWwnHHZ-200" vertex="1">
          <mxGeometry y="60" width="180" height="30" as="geometry" />
        </mxCell>
        <mxCell id="_AAOeLuktKhKLIWwnHHZ-205" value="" style="shape=partialRectangle;connectable=0;fillColor=none;top=0;left=0;bottom=0;right=0;editable=1;overflow=hidden;whiteSpace=wrap;html=1;" parent="_AAOeLuktKhKLIWwnHHZ-204" vertex="1">
          <mxGeometry width="30" height="30" as="geometry">
            <mxRectangle width="30" height="30" as="alternateBounds" />
          </mxGeometry>
        </mxCell>
        <mxCell id="_AAOeLuktKhKLIWwnHHZ-206" value="eq_instructions" style="shape=partialRectangle;connectable=0;fillColor=none;top=0;left=0;bottom=0;right=0;align=left;spacingLeft=6;overflow=hidden;whiteSpace=wrap;html=1;" parent="_AAOeLuktKhKLIWwnHHZ-204" vertex="1">
          <mxGeometry x="30" width="150" height="30" as="geometry">
            <mxRectangle width="150" height="30" as="alternateBounds" />
          </mxGeometry>
        </mxCell>
        <mxCell id="_AAOeLuktKhKLIWwnHHZ-207" value="" style="shape=tableRow;horizontal=0;startSize=0;swimlaneHead=0;swimlaneBody=0;fillColor=none;collapsible=0;dropTarget=0;points=[[0,0.5],[1,0.5]];portConstraint=eastwest;top=0;left=0;right=0;bottom=0;" parent="_AAOeLuktKhKLIWwnHHZ-200" vertex="1">
          <mxGeometry y="90" width="180" height="30" as="geometry" />
        </mxCell>
        <mxCell id="_AAOeLuktKhKLIWwnHHZ-208" value="" style="shape=partialRectangle;connectable=0;fillColor=none;top=0;left=0;bottom=0;right=0;editable=1;overflow=hidden;whiteSpace=wrap;html=1;" parent="_AAOeLuktKhKLIWwnHHZ-207" vertex="1">
          <mxGeometry width="30" height="30" as="geometry">
            <mxRectangle width="30" height="30" as="alternateBounds" />
          </mxGeometry>
        </mxCell>
        <mxCell id="_AAOeLuktKhKLIWwnHHZ-209" value="eq_photo" style="shape=partialRectangle;connectable=0;fillColor=none;top=0;left=0;bottom=0;right=0;align=left;spacingLeft=6;overflow=hidden;whiteSpace=wrap;html=1;" parent="_AAOeLuktKhKLIWwnHHZ-207" vertex="1">
          <mxGeometry x="30" width="150" height="30" as="geometry">
            <mxRectangle width="150" height="30" as="alternateBounds" />
          </mxGeometry>
        </mxCell>
        <mxCell id="_AAOeLuktKhKLIWwnHHZ-210" value="" style="shape=tableRow;horizontal=0;startSize=0;swimlaneHead=0;swimlaneBody=0;fillColor=none;collapsible=0;dropTarget=0;points=[[0,0.5],[1,0.5]];portConstraint=eastwest;top=0;left=0;right=0;bottom=0;" parent="_AAOeLuktKhKLIWwnHHZ-200" vertex="1">
          <mxGeometry y="120" width="180" height="30" as="geometry" />
        </mxCell>
        <mxCell id="_AAOeLuktKhKLIWwnHHZ-211" value="" style="shape=partialRectangle;connectable=0;fillColor=none;top=0;left=0;bottom=0;right=0;editable=1;overflow=hidden;whiteSpace=wrap;html=1;" parent="_AAOeLuktKhKLIWwnHHZ-210" vertex="1">
          <mxGeometry width="30" height="30" as="geometry">
            <mxRectangle width="30" height="30" as="alternateBounds" />
          </mxGeometry>
        </mxCell>
        <mxCell id="_AAOeLuktKhKLIWwnHHZ-212" value="eq_photo_desc" style="shape=partialRectangle;connectable=0;fillColor=none;top=0;left=0;bottom=0;right=0;align=left;spacingLeft=6;overflow=hidden;whiteSpace=wrap;html=1;" parent="_AAOeLuktKhKLIWwnHHZ-210" vertex="1">
          <mxGeometry x="30" width="150" height="30" as="geometry">
            <mxRectangle width="150" height="30" as="alternateBounds" />
          </mxGeometry>
        </mxCell>
        <mxCell id="_AAOeLuktKhKLIWwnHHZ-213" value="requires_eq" style="shape=rhombus;perimeter=rhombusPerimeter;whiteSpace=wrap;html=1;align=center;" parent="1" vertex="1">
          <mxGeometry x="280" y="887" width="120" height="60" as="geometry" />
        </mxCell>
        <mxCell id="_AAOeLuktKhKLIWwnHHZ-238" value="is_a_contestant" style="shape=rhombus;perimeter=rhombusPerimeter;whiteSpace=wrap;html=1;align=center;" parent="1" vertex="1">
          <mxGeometry x="500" y="362" width="120" height="60" as="geometry" />
        </mxCell>
        <mxCell id="_AAOeLuktKhKLIWwnHHZ-239" value="" style="shape=link;html=1;rounded=0;" parent="1" target="_AAOeLuktKhKLIWwnHHZ-238" edge="1">
          <mxGeometry relative="1" as="geometry">
            <mxPoint x="210" y="392" as="sourcePoint" />
            <mxPoint x="560" y="502" as="targetPoint" />
          </mxGeometry>
        </mxCell>
        <mxCell id="_AAOeLuktKhKLIWwnHHZ-256" value="thematic_section" style="shape=table;startSize=30;container=1;collapsible=1;childLayout=tableLayout;fixedRows=1;rowLines=0;fontStyle=1;align=center;resizeLast=1;html=1;" parent="1" vertex="1">
          <mxGeometry x="50" y="634" width="142.5" height="90" as="geometry" />
        </mxCell>
        <mxCell id="_AAOeLuktKhKLIWwnHHZ-257" value="" style="shape=tableRow;horizontal=0;startSize=0;swimlaneHead=0;swimlaneBody=0;fillColor=none;collapsible=0;dropTarget=0;points=[[0,0.5],[1,0.5]];portConstraint=eastwest;top=0;left=0;right=0;bottom=1;" parent="_AAOeLuktKhKLIWwnHHZ-256" vertex="1">
          <mxGeometry y="30" width="142.5" height="30" as="geometry" />
        </mxCell>
        <mxCell id="_AAOeLuktKhKLIWwnHHZ-258" value="PK" style="shape=partialRectangle;connectable=0;fillColor=none;top=0;left=0;bottom=0;right=0;fontStyle=1;overflow=hidden;whiteSpace=wrap;html=1;" parent="_AAOeLuktKhKLIWwnHHZ-257" vertex="1">
          <mxGeometry width="30" height="30" as="geometry">
            <mxRectangle width="30" height="30" as="alternateBounds" />
          </mxGeometry>
        </mxCell>
        <mxCell id="_AAOeLuktKhKLIWwnHHZ-259" value="sec_name" style="shape=partialRectangle;connectable=0;fillColor=none;top=0;left=0;bottom=0;right=0;align=left;spacingLeft=6;fontStyle=5;overflow=hidden;whiteSpace=wrap;html=1;" parent="_AAOeLuktKhKLIWwnHHZ-257" vertex="1">
          <mxGeometry x="30" width="112.5" height="30" as="geometry">
            <mxRectangle width="112.5" height="30" as="alternateBounds" />
          </mxGeometry>
        </mxCell>
        <mxCell id="_AAOeLuktKhKLIWwnHHZ-260" value="" style="shape=tableRow;horizontal=0;startSize=0;swimlaneHead=0;swimlaneBody=0;fillColor=none;collapsible=0;dropTarget=0;points=[[0,0.5],[1,0.5]];portConstraint=eastwest;top=0;left=0;right=0;bottom=0;" parent="_AAOeLuktKhKLIWwnHHZ-256" vertex="1">
          <mxGeometry y="60" width="142.5" height="30" as="geometry" />
        </mxCell>
        <mxCell id="_AAOeLuktKhKLIWwnHHZ-261" value="" style="shape=partialRectangle;connectable=0;fillColor=none;top=0;left=0;bottom=0;right=0;editable=1;overflow=hidden;whiteSpace=wrap;html=1;" parent="_AAOeLuktKhKLIWwnHHZ-260" vertex="1">
          <mxGeometry width="30" height="30" as="geometry">
            <mxRectangle width="30" height="30" as="alternateBounds" />
          </mxGeometry>
        </mxCell>
        <mxCell id="_AAOeLuktKhKLIWwnHHZ-262" value="sec_desc" style="shape=partialRectangle;connectable=0;fillColor=none;top=0;left=0;bottom=0;right=0;align=left;spacingLeft=6;overflow=hidden;whiteSpace=wrap;html=1;" parent="_AAOeLuktKhKLIWwnHHZ-260" vertex="1">
          <mxGeometry x="30" width="112.5" height="30" as="geometry">
            <mxRectangle width="112.5" height="30" as="alternateBounds" />
          </mxGeometry>
        </mxCell>
        <mxCell id="_AAOeLuktKhKLIWwnHHZ-269" value="recipe_belongs_to" style="shape=rhombus;perimeter=rhombusPerimeter;whiteSpace=wrap;html=1;align=center;" parent="1" vertex="1">
          <mxGeometry x="282" y="659.5" width="120" height="60" as="geometry" />
        </mxCell>
        <mxCell id="_AAOeLuktKhKLIWwnHHZ-270" value="" style="shape=link;html=1;rounded=0;exitX=1.003;exitY=-0.181;exitDx=0;exitDy=0;entryX=0;entryY=0.5;entryDx=0;entryDy=0;exitPerimeter=0;" parent="1" source="_AAOeLuktKhKLIWwnHHZ-260" target="_AAOeLuktKhKLIWwnHHZ-269" edge="1">
          <mxGeometry relative="1" as="geometry">
            <mxPoint x="365" y="587" as="sourcePoint" />
            <mxPoint x="525" y="587" as="targetPoint" />
          </mxGeometry>
        </mxCell>
        <mxCell id="_AAOeLuktKhKLIWwnHHZ-274" value="" style="shape=link;html=1;rounded=0;exitX=1;exitY=0.5;exitDx=0;exitDy=0;entryX=0;entryY=0.5;entryDx=0;entryDy=0;" parent="1" source="_AAOeLuktKhKLIWwnHHZ-269" target="_AAOeLuktKhKLIWwnHHZ-159" edge="1">
          <mxGeometry relative="1" as="geometry">
            <mxPoint x="210" y="672" as="sourcePoint" />
            <mxPoint x="460" y="564.5" as="targetPoint" />
          </mxGeometry>
        </mxCell>
        <mxCell id="_AAOeLuktKhKLIWwnHHZ-275" value="ingredients" style="shape=table;startSize=30;container=1;collapsible=1;childLayout=tableLayout;fixedRows=1;rowLines=0;fontStyle=1;align=center;resizeLast=1;html=1;" parent="1" vertex="1">
          <mxGeometry x="960" y="842" width="180" height="150" as="geometry" />
        </mxCell>
        <mxCell id="_AAOeLuktKhKLIWwnHHZ-276" value="" style="shape=tableRow;horizontal=0;startSize=0;swimlaneHead=0;swimlaneBody=0;fillColor=none;collapsible=0;dropTarget=0;points=[[0,0.5],[1,0.5]];portConstraint=eastwest;top=0;left=0;right=0;bottom=1;" parent="_AAOeLuktKhKLIWwnHHZ-275" vertex="1">
          <mxGeometry y="30" width="180" height="30" as="geometry" />
        </mxCell>
        <mxCell id="_AAOeLuktKhKLIWwnHHZ-277" value="PK" style="shape=partialRectangle;connectable=0;fillColor=none;top=0;left=0;bottom=0;right=0;fontStyle=1;overflow=hidden;whiteSpace=wrap;html=1;" parent="_AAOeLuktKhKLIWwnHHZ-276" vertex="1">
          <mxGeometry width="30" height="30" as="geometry">
            <mxRectangle width="30" height="30" as="alternateBounds" />
          </mxGeometry>
        </mxCell>
        <mxCell id="_AAOeLuktKhKLIWwnHHZ-278" value="ingr_name" style="shape=partialRectangle;connectable=0;fillColor=none;top=0;left=0;bottom=0;right=0;align=left;spacingLeft=6;fontStyle=5;overflow=hidden;whiteSpace=wrap;html=1;" parent="_AAOeLuktKhKLIWwnHHZ-276" vertex="1">
          <mxGeometry x="30" width="150" height="30" as="geometry">
            <mxRectangle width="150" height="30" as="alternateBounds" />
          </mxGeometry>
        </mxCell>
        <mxCell id="_AAOeLuktKhKLIWwnHHZ-279" value="" style="shape=tableRow;horizontal=0;startSize=0;swimlaneHead=0;swimlaneBody=0;fillColor=none;collapsible=0;dropTarget=0;points=[[0,0.5],[1,0.5]];portConstraint=eastwest;top=0;left=0;right=0;bottom=0;" parent="_AAOeLuktKhKLIWwnHHZ-275" vertex="1">
          <mxGeometry y="60" width="180" height="30" as="geometry" />
        </mxCell>
        <mxCell id="_AAOeLuktKhKLIWwnHHZ-280" value="" style="shape=partialRectangle;connectable=0;fillColor=none;top=0;left=0;bottom=0;right=0;editable=1;overflow=hidden;whiteSpace=wrap;html=1;" parent="_AAOeLuktKhKLIWwnHHZ-279" vertex="1">
          <mxGeometry width="30" height="30" as="geometry">
            <mxRectangle width="30" height="30" as="alternateBounds" />
          </mxGeometry>
        </mxCell>
        <mxCell id="_AAOeLuktKhKLIWwnHHZ-281" value="ingr_calories" style="shape=partialRectangle;connectable=0;fillColor=none;top=0;left=0;bottom=0;right=0;align=left;spacingLeft=6;overflow=hidden;whiteSpace=wrap;html=1;" parent="_AAOeLuktKhKLIWwnHHZ-279" vertex="1">
          <mxGeometry x="30" width="150" height="30" as="geometry">
            <mxRectangle width="150" height="30" as="alternateBounds" />
          </mxGeometry>
        </mxCell>
        <mxCell id="_AAOeLuktKhKLIWwnHHZ-282" value="" style="shape=tableRow;horizontal=0;startSize=0;swimlaneHead=0;swimlaneBody=0;fillColor=none;collapsible=0;dropTarget=0;points=[[0,0.5],[1,0.5]];portConstraint=eastwest;top=0;left=0;right=0;bottom=0;" parent="_AAOeLuktKhKLIWwnHHZ-275" vertex="1">
          <mxGeometry y="90" width="180" height="30" as="geometry" />
        </mxCell>
        <mxCell id="_AAOeLuktKhKLIWwnHHZ-283" value="" style="shape=partialRectangle;connectable=0;fillColor=none;top=0;left=0;bottom=0;right=0;editable=1;overflow=hidden;whiteSpace=wrap;html=1;" parent="_AAOeLuktKhKLIWwnHHZ-282" vertex="1">
          <mxGeometry width="30" height="30" as="geometry">
            <mxRectangle width="30" height="30" as="alternateBounds" />
          </mxGeometry>
        </mxCell>
        <mxCell id="_AAOeLuktKhKLIWwnHHZ-284" value="allows_loose_untis" style="shape=partialRectangle;connectable=0;fillColor=none;top=0;left=0;bottom=0;right=0;align=left;spacingLeft=6;overflow=hidden;whiteSpace=wrap;html=1;" parent="_AAOeLuktKhKLIWwnHHZ-282" vertex="1">
          <mxGeometry x="30" width="150" height="30" as="geometry">
            <mxRectangle width="150" height="30" as="alternateBounds" />
          </mxGeometry>
        </mxCell>
        <mxCell id="_AAOeLuktKhKLIWwnHHZ-294" value="" style="shape=tableRow;horizontal=0;startSize=0;swimlaneHead=0;swimlaneBody=0;fillColor=none;collapsible=0;dropTarget=0;points=[[0,0.5],[1,0.5]];portConstraint=eastwest;top=0;left=0;right=0;bottom=0;" parent="_AAOeLuktKhKLIWwnHHZ-275" vertex="1">
          <mxGeometry y="120" width="180" height="30" as="geometry" />
        </mxCell>
        <mxCell id="_AAOeLuktKhKLIWwnHHZ-295" value="" style="shape=partialRectangle;connectable=0;fillColor=none;top=0;left=0;bottom=0;right=0;editable=1;overflow=hidden;" parent="_AAOeLuktKhKLIWwnHHZ-294" vertex="1">
          <mxGeometry width="30" height="30" as="geometry">
            <mxRectangle width="30" height="30" as="alternateBounds" />
          </mxGeometry>
        </mxCell>
        <mxCell id="_AAOeLuktKhKLIWwnHHZ-296" value="unit" style="shape=partialRectangle;connectable=0;fillColor=none;top=0;left=0;bottom=0;right=0;align=left;spacingLeft=6;overflow=hidden;" parent="_AAOeLuktKhKLIWwnHHZ-294" vertex="1">
          <mxGeometry x="30" width="150" height="30" as="geometry">
            <mxRectangle width="150" height="30" as="alternateBounds" />
          </mxGeometry>
        </mxCell>
        <mxCell id="_AAOeLuktKhKLIWwnHHZ-301" value="main_ingr" style="shape=rhombus;perimeter=rhombusPerimeter;whiteSpace=wrap;html=1;align=center;" parent="1" vertex="1">
          <mxGeometry x="740" y="782" width="120" height="60" as="geometry" />
        </mxCell>
        <mxCell id="XmS-rvhfOjhDCMI8ourb-87" style="edgeStyle=orthogonalEdgeStyle;rounded=0;orthogonalLoop=1;jettySize=auto;html=1;exitX=0.5;exitY=1;exitDx=0;exitDy=0;endArrow=none;endFill=0;dashed=1;dashPattern=8 8;" edge="1" parent="1" source="_AAOeLuktKhKLIWwnHHZ-302">
          <mxGeometry relative="1" as="geometry">
            <mxPoint x="800" y="992" as="targetPoint" />
          </mxGeometry>
        </mxCell>
        <mxCell id="_AAOeLuktKhKLIWwnHHZ-302" value="requires_ingr" style="shape=rhombus;perimeter=rhombusPerimeter;whiteSpace=wrap;html=1;align=center;" parent="1" vertex="1">
          <mxGeometry x="740" y="887" width="120" height="60" as="geometry" />
        </mxCell>
        <mxCell id="IBGTnSVLaNQR-O4FB5Rm-2" value="" style="shape=link;html=1;rounded=0;exitX=1;exitY=0.5;exitDx=0;exitDy=0;entryX=0;entryY=0.5;entryDx=0;entryDy=0;" parent="1" source="_AAOeLuktKhKLIWwnHHZ-302" target="_AAOeLuktKhKLIWwnHHZ-279" edge="1">
          <mxGeometry relative="1" as="geometry">
            <mxPoint x="790" y="992" as="sourcePoint" />
            <mxPoint x="980" y="822" as="targetPoint" />
          </mxGeometry>
        </mxCell>
        <mxCell id="IBGTnSVLaNQR-O4FB5Rm-7" value="recipe_country" style="shape=rhombus;perimeter=rhombusPerimeter;whiteSpace=wrap;html=1;align=center;" parent="1" vertex="1">
          <mxGeometry x="790" y="502" width="120" height="60" as="geometry" />
        </mxCell>
        <mxCell id="IBGTnSVLaNQR-O4FB5Rm-9" value="" style="shape=link;html=1;rounded=0;entryX=0;entryY=0.5;entryDx=0;entryDy=0;" parent="1" target="IBGTnSVLaNQR-O4FB5Rm-7" edge="1">
          <mxGeometry relative="1" as="geometry">
            <mxPoint x="650" y="532" as="sourcePoint" />
            <mxPoint x="880" y="612" as="targetPoint" />
          </mxGeometry>
        </mxCell>
        <mxCell id="IBGTnSVLaNQR-O4FB5Rm-10" value="" style="resizable=0;html=1;whiteSpace=wrap;align=left;verticalAlign=bottom;" parent="IBGTnSVLaNQR-O4FB5Rm-9" connectable="0" vertex="1">
          <mxGeometry x="-1" relative="1" as="geometry" />
        </mxCell>
        <mxCell id="IBGTnSVLaNQR-O4FB5Rm-15" value="" style="endArrow=classic;html=1;rounded=0;exitX=1;exitY=0.5;exitDx=0;exitDy=0;entryX=-0.006;entryY=-0.152;entryDx=0;entryDy=0;entryPerimeter=0;" parent="1" source="_AAOeLuktKhKLIWwnHHZ-301" target="_AAOeLuktKhKLIWwnHHZ-276" edge="1">
          <mxGeometry width="50" height="50" relative="1" as="geometry">
            <mxPoint x="780" y="802" as="sourcePoint" />
            <mxPoint x="830" y="752" as="targetPoint" />
          </mxGeometry>
        </mxCell>
        <mxCell id="IBGTnSVLaNQR-O4FB5Rm-18" value="" style="shape=link;html=1;rounded=0;entryX=0;entryY=0.5;entryDx=0;entryDy=0;" parent="1" target="_AAOeLuktKhKLIWwnHHZ-302" edge="1">
          <mxGeometry relative="1" as="geometry">
            <mxPoint x="650" y="917" as="sourcePoint" />
            <mxPoint x="845" y="952" as="targetPoint" />
          </mxGeometry>
        </mxCell>
        <mxCell id="IBGTnSVLaNQR-O4FB5Rm-19" value="" style="shape=link;html=1;rounded=0;entryX=0;entryY=0.5;entryDx=0;entryDy=0;" parent="1" target="_AAOeLuktKhKLIWwnHHZ-301" edge="1">
          <mxGeometry relative="1" as="geometry">
            <mxPoint x="650" y="812" as="sourcePoint" />
            <mxPoint x="813" y="754" as="targetPoint" />
          </mxGeometry>
        </mxCell>
        <mxCell id="IBGTnSVLaNQR-O4FB5Rm-21" value="" style="endArrow=none;html=1;rounded=0;exitX=1;exitY=0.5;exitDx=0;exitDy=0;entryX=0;entryY=0.5;entryDx=0;entryDy=0;shape=link;" parent="1" source="_AAOeLuktKhKLIWwnHHZ-204" target="_AAOeLuktKhKLIWwnHHZ-213" edge="1">
          <mxGeometry relative="1" as="geometry">
            <mxPoint x="310" y="912" as="sourcePoint" />
            <mxPoint x="470" y="912" as="targetPoint" />
          </mxGeometry>
        </mxCell>
        <mxCell id="IBGTnSVLaNQR-O4FB5Rm-23" value="ingredient_group" style="shape=rhombus;perimeter=rhombusPerimeter;whiteSpace=wrap;html=1;align=center;" parent="1" vertex="1">
          <mxGeometry x="990" y="732" width="120" height="60" as="geometry" />
        </mxCell>
        <mxCell id="IBGTnSVLaNQR-O4FB5Rm-24" value="" style="shape=link;html=1;rounded=0;exitX=0.5;exitY=0;exitDx=0;exitDy=0;entryX=0.5;entryY=1;entryDx=0;entryDy=0;" parent="1" source="_AAOeLuktKhKLIWwnHHZ-275" target="IBGTnSVLaNQR-O4FB5Rm-23" edge="1">
          <mxGeometry relative="1" as="geometry">
            <mxPoint x="960" y="642" as="sourcePoint" />
            <mxPoint x="1035" y="589" as="targetPoint" />
          </mxGeometry>
        </mxCell>
        <mxCell id="IBGTnSVLaNQR-O4FB5Rm-25" value="" style="endArrow=classic;html=1;rounded=0;exitX=0.5;exitY=0;exitDx=0;exitDy=0;" parent="1" source="IBGTnSVLaNQR-O4FB5Rm-23" edge="1">
          <mxGeometry width="50" height="50" relative="1" as="geometry">
            <mxPoint x="1160" y="542" as="sourcePoint" />
            <mxPoint x="1050" y="695" as="targetPoint" />
          </mxGeometry>
        </mxCell>
        <mxCell id="IBGTnSVLaNQR-O4FB5Rm-26" value="food_groups" style="shape=table;startSize=30;container=1;collapsible=1;childLayout=tableLayout;fixedRows=1;rowLines=0;fontStyle=1;align=center;resizeLast=1;html=1;" parent="1" vertex="1">
          <mxGeometry x="960" y="572" width="180" height="120" as="geometry" />
        </mxCell>
        <mxCell id="IBGTnSVLaNQR-O4FB5Rm-27" value="" style="shape=tableRow;horizontal=0;startSize=0;swimlaneHead=0;swimlaneBody=0;fillColor=none;collapsible=0;dropTarget=0;points=[[0,0.5],[1,0.5]];portConstraint=eastwest;top=0;left=0;right=0;bottom=1;" parent="IBGTnSVLaNQR-O4FB5Rm-26" vertex="1">
          <mxGeometry y="30" width="180" height="30" as="geometry" />
        </mxCell>
        <mxCell id="IBGTnSVLaNQR-O4FB5Rm-28" value="PK" style="shape=partialRectangle;connectable=0;fillColor=none;top=0;left=0;bottom=0;right=0;fontStyle=1;overflow=hidden;whiteSpace=wrap;html=1;" parent="IBGTnSVLaNQR-O4FB5Rm-27" vertex="1">
          <mxGeometry width="30" height="30" as="geometry">
            <mxRectangle width="30" height="30" as="alternateBounds" />
          </mxGeometry>
        </mxCell>
        <mxCell id="IBGTnSVLaNQR-O4FB5Rm-29" value="group_name" style="shape=partialRectangle;connectable=0;fillColor=none;top=0;left=0;bottom=0;right=0;align=left;spacingLeft=6;fontStyle=5;overflow=hidden;whiteSpace=wrap;html=1;" parent="IBGTnSVLaNQR-O4FB5Rm-27" vertex="1">
          <mxGeometry x="30" width="150" height="30" as="geometry">
            <mxRectangle width="150" height="30" as="alternateBounds" />
          </mxGeometry>
        </mxCell>
        <mxCell id="IBGTnSVLaNQR-O4FB5Rm-30" value="" style="shape=tableRow;horizontal=0;startSize=0;swimlaneHead=0;swimlaneBody=0;fillColor=none;collapsible=0;dropTarget=0;points=[[0,0.5],[1,0.5]];portConstraint=eastwest;top=0;left=0;right=0;bottom=0;" parent="IBGTnSVLaNQR-O4FB5Rm-26" vertex="1">
          <mxGeometry y="60" width="180" height="30" as="geometry" />
        </mxCell>
        <mxCell id="IBGTnSVLaNQR-O4FB5Rm-31" value="" style="shape=partialRectangle;connectable=0;fillColor=none;top=0;left=0;bottom=0;right=0;editable=1;overflow=hidden;whiteSpace=wrap;html=1;" parent="IBGTnSVLaNQR-O4FB5Rm-30" vertex="1">
          <mxGeometry width="30" height="30" as="geometry">
            <mxRectangle width="30" height="30" as="alternateBounds" />
          </mxGeometry>
        </mxCell>
        <mxCell id="IBGTnSVLaNQR-O4FB5Rm-32" value="group_desc" style="shape=partialRectangle;connectable=0;fillColor=none;top=0;left=0;bottom=0;right=0;align=left;spacingLeft=6;overflow=hidden;whiteSpace=wrap;html=1;" parent="IBGTnSVLaNQR-O4FB5Rm-30" vertex="1">
          <mxGeometry x="30" width="150" height="30" as="geometry">
            <mxRectangle width="150" height="30" as="alternateBounds" />
          </mxGeometry>
        </mxCell>
        <mxCell id="IBGTnSVLaNQR-O4FB5Rm-33" value="" style="shape=tableRow;horizontal=0;startSize=0;swimlaneHead=0;swimlaneBody=0;fillColor=none;collapsible=0;dropTarget=0;points=[[0,0.5],[1,0.5]];portConstraint=eastwest;top=0;left=0;right=0;bottom=0;" parent="IBGTnSVLaNQR-O4FB5Rm-26" vertex="1">
          <mxGeometry y="90" width="180" height="30" as="geometry" />
        </mxCell>
        <mxCell id="IBGTnSVLaNQR-O4FB5Rm-34" value="" style="shape=partialRectangle;connectable=0;fillColor=none;top=0;left=0;bottom=0;right=0;editable=1;overflow=hidden;whiteSpace=wrap;html=1;" parent="IBGTnSVLaNQR-O4FB5Rm-33" vertex="1">
          <mxGeometry width="30" height="30" as="geometry">
            <mxRectangle width="30" height="30" as="alternateBounds" />
          </mxGeometry>
        </mxCell>
        <mxCell id="IBGTnSVLaNQR-O4FB5Rm-35" value="recipe_characterization" style="shape=partialRectangle;connectable=0;fillColor=none;top=0;left=0;bottom=0;right=0;align=left;spacingLeft=6;overflow=hidden;whiteSpace=wrap;html=1;" parent="IBGTnSVLaNQR-O4FB5Rm-33" vertex="1">
          <mxGeometry x="30" width="150" height="30" as="geometry">
            <mxRectangle width="150" height="30" as="alternateBounds" />
          </mxGeometry>
        </mxCell>
        <mxCell id="IBGTnSVLaNQR-O4FB5Rm-39" value="" style="endArrow=none;html=1;rounded=0;exitX=0.5;exitY=0;exitDx=0;exitDy=0;entryX=0.5;entryY=1;entryDx=0;entryDy=0;" parent="1" source="_AAOeLuktKhKLIWwnHHZ-127" target="_AAOeLuktKhKLIWwnHHZ-131" edge="1">
          <mxGeometry relative="1" as="geometry">
            <mxPoint x="670" y="232" as="sourcePoint" />
            <mxPoint x="830" y="232" as="targetPoint" />
          </mxGeometry>
        </mxCell>
        <mxCell id="IBGTnSVLaNQR-O4FB5Rm-40" value="" style="endArrow=none;html=1;rounded=0;exitX=1;exitY=0.5;exitDx=0;exitDy=0;startSize=6;" parent="1" source="_AAOeLuktKhKLIWwnHHZ-82" edge="1">
          <mxGeometry relative="1" as="geometry">
            <mxPoint x="290" y="202" as="sourcePoint" />
            <mxPoint x="478" y="152" as="targetPoint" />
          </mxGeometry>
        </mxCell>
        <mxCell id="IBGTnSVLaNQR-O4FB5Rm-42" value="" style="endArrow=none;html=1;rounded=0;entryX=0.5;entryY=1;entryDx=0;entryDy=0;" parent="1" target="_AAOeLuktKhKLIWwnHHZ-238" edge="1">
          <mxGeometry relative="1" as="geometry">
            <mxPoint x="560" y="502" as="sourcePoint" />
            <mxPoint x="690" y="502" as="targetPoint" />
          </mxGeometry>
        </mxCell>
        <mxCell id="IBGTnSVLaNQR-O4FB5Rm-44" value="" style="endArrow=none;html=1;rounded=0;exitX=0.5;exitY=0;exitDx=0;exitDy=0;entryX=0.533;entryY=1;entryDx=0;entryDy=0;entryPerimeter=0;" parent="1" source="_AAOeLuktKhKLIWwnHHZ-238" target="_AAOeLuktKhKLIWwnHHZ-63" edge="1">
          <mxGeometry relative="1" as="geometry">
            <mxPoint x="470" y="362" as="sourcePoint" />
            <mxPoint x="630" y="362" as="targetPoint" />
          </mxGeometry>
        </mxCell>
        <mxCell id="IBGTnSVLaNQR-O4FB5Rm-45" value="" style="endArrow=none;html=1;rounded=0;exitX=1;exitY=0.5;exitDx=0;exitDy=0;entryX=0;entryY=0.5;entryDx=0;entryDy=0;" parent="1" source="_AAOeLuktKhKLIWwnHHZ-238" target="_AAOeLuktKhKLIWwnHHZ-128" edge="1">
          <mxGeometry relative="1" as="geometry">
            <mxPoint x="600" y="402" as="sourcePoint" />
            <mxPoint x="760" y="402" as="targetPoint" />
          </mxGeometry>
        </mxCell>
        <mxCell id="IBGTnSVLaNQR-O4FB5Rm-46" value="" style="endArrow=classic;html=1;rounded=0;exitX=0.5;exitY=0;exitDx=0;exitDy=0;entryX=0.5;entryY=1;entryDx=0;entryDy=0;entryPerimeter=0;" parent="1" source="IBGTnSVLaNQR-O4FB5Rm-7" target="_AAOeLuktKhKLIWwnHHZ-128" edge="1">
          <mxGeometry width="50" height="50" relative="1" as="geometry">
            <mxPoint x="790" y="462" as="sourcePoint" />
            <mxPoint x="850" y="362" as="targetPoint" />
          </mxGeometry>
        </mxCell>
        <mxCell id="XmS-rvhfOjhDCMI8ourb-84" value="" style="endArrow=none;html=1;rounded=0;exitX=1;exitY=0.5;exitDx=0;exitDy=0;shape=link;" edge="1" parent="1" source="_AAOeLuktKhKLIWwnHHZ-213">
          <mxGeometry relative="1" as="geometry">
            <mxPoint x="425" y="638" as="sourcePoint" />
            <mxPoint x="460" y="917" as="targetPoint" />
          </mxGeometry>
        </mxCell>
        <mxCell id="XmS-rvhfOjhDCMI8ourb-95" value="" style="swimlane;fontStyle=0;childLayout=stackLayout;horizontal=1;startSize=0;horizontalStack=0;resizeParent=1;resizeParentMax=0;resizeLast=0;collapsible=1;marginBottom=0;align=center;fontSize=14;" vertex="1" parent="1">
          <mxGeometry x="750" y="992" width="112" height="50" as="geometry">
            <mxRectangle x="750" y="960" width="60" height="30" as="alternateBounds" />
          </mxGeometry>
        </mxCell>
        <mxCell id="XmS-rvhfOjhDCMI8ourb-96" value="quantity" style="text;spacingLeft=4;spacingRight=4;overflow=hidden;rotatable=0;points=[[0,0.5],[1,0.5]];portConstraint=eastwest;fontSize=12;whiteSpace=wrap;html=1;labelBorderColor=none;fillColor=none;perimeterSpacing=11;strokeWidth=1;strokeColor=default;" vertex="1" parent="XmS-rvhfOjhDCMI8ourb-95">
          <mxGeometry width="112" height="25" as="geometry" />
        </mxCell>
        <mxCell id="XmS-rvhfOjhDCMI8ourb-97" value="undefined_quantity" style="text;strokeColor=none;fillColor=none;spacingLeft=4;spacingRight=4;overflow=hidden;rotatable=0;points=[[0,0.5],[1,0.5]];portConstraint=eastwest;fontSize=12;whiteSpace=wrap;html=1;" vertex="1" parent="XmS-rvhfOjhDCMI8ourb-95">
          <mxGeometry y="25" width="112" height="25" as="geometry" />
        </mxCell>
        <mxCell id="ZsUvDULF3iTAYczw1AmM-1" style="edgeStyle=orthogonalEdgeStyle;rounded=0;orthogonalLoop=1;jettySize=auto;html=1;exitX=0.5;exitY=1;exitDx=0;exitDy=0;endArrow=none;endFill=0;dashed=1;dashPattern=8 8;" edge="1" parent="1" source="_AAOeLuktKhKLIWwnHHZ-213">
          <mxGeometry relative="1" as="geometry">
            <mxPoint x="340" y="987" as="targetPoint" />
            <mxPoint x="340" y="942" as="sourcePoint" />
          </mxGeometry>
        </mxCell>
        <mxCell id="ZsUvDULF3iTAYczw1AmM-2" value="" style="swimlane;fontStyle=0;childLayout=stackLayout;horizontal=1;startSize=0;horizontalStack=0;resizeParent=1;resizeParentMax=0;resizeLast=0;collapsible=1;marginBottom=0;align=center;fontSize=14;" vertex="1" parent="1">
          <mxGeometry x="290" y="987" width="112" height="25" as="geometry">
            <mxRectangle x="750" y="960" width="60" height="30" as="alternateBounds" />
          </mxGeometry>
        </mxCell>
        <mxCell id="ZsUvDULF3iTAYczw1AmM-3" value="quantity" style="text;spacingLeft=4;spacingRight=4;overflow=hidden;rotatable=0;points=[[0,0.5],[1,0.5]];portConstraint=eastwest;fontSize=12;whiteSpace=wrap;html=1;labelBorderColor=none;fillColor=none;perimeterSpacing=11;strokeWidth=1;strokeColor=default;" vertex="1" parent="ZsUvDULF3iTAYczw1AmM-2">
          <mxGeometry width="112" height="25" as="geometry" />
        </mxCell>
        <mxCell id="ZsUvDULF3iTAYczw1AmM-9" value="" style="swimlane;fontStyle=0;childLayout=stackLayout;horizontal=1;startSize=0;horizontalStack=0;resizeParent=1;resizeParentMax=0;resizeLast=0;collapsible=1;marginBottom=0;align=center;fontSize=14;" vertex="1" parent="1">
          <mxGeometry x="65.25" y="52" width="112" height="25" as="geometry">
            <mxRectangle x="750" y="960" width="60" height="30" as="alternateBounds" />
          </mxGeometry>
        </mxCell>
        <mxCell id="ZsUvDULF3iTAYczw1AmM-10" value="id" style="text;spacingLeft=4;spacingRight=4;overflow=hidden;rotatable=0;points=[[0,0.5],[1,0.5]];portConstraint=eastwest;fontSize=12;whiteSpace=wrap;html=1;labelBorderColor=none;fillColor=none;perimeterSpacing=11;strokeWidth=1;strokeColor=default;align=center;" vertex="1" parent="ZsUvDULF3iTAYczw1AmM-9">
          <mxGeometry width="112" height="25" as="geometry" />
        </mxCell>
        <mxCell id="ZsUvDULF3iTAYczw1AmM-11" style="rounded=0;orthogonalLoop=1;jettySize=auto;html=1;exitX=0.5;exitY=0;exitDx=0;exitDy=0;entryX=0.498;entryY=0.745;entryDx=0;entryDy=0;entryPerimeter=0;endArrow=none;endFill=0;dashed=1;dashPattern=8 8;" edge="1" parent="1" source="_AAOeLuktKhKLIWwnHHZ-82" target="ZsUvDULF3iTAYczw1AmM-10">
          <mxGeometry relative="1" as="geometry" />
        </mxCell>
        <mxCell id="ZsUvDULF3iTAYczw1AmM-13" value="" style="swimlane;fontStyle=0;childLayout=stackLayout;horizontal=1;startSize=0;horizontalStack=0;resizeParent=1;resizeParentMax=0;resizeLast=0;collapsible=1;marginBottom=0;align=center;fontSize=14;" vertex="1" parent="1">
          <mxGeometry x="290" y="222" width="112" height="100" as="geometry">
            <mxRectangle x="750" y="960" width="60" height="30" as="alternateBounds" />
          </mxGeometry>
        </mxCell>
        <mxCell id="ZsUvDULF3iTAYczw1AmM-14" value="grade" style="text;spacingLeft=4;spacingRight=4;overflow=hidden;rotatable=0;points=[[0,0.5],[1,0.5]];portConstraint=eastwest;fontSize=12;whiteSpace=wrap;html=1;labelBorderColor=none;fillColor=none;perimeterSpacing=11;strokeWidth=1;strokeColor=default;align=left;" vertex="1" parent="ZsUvDULF3iTAYczw1AmM-13">
          <mxGeometry width="112" height="25" as="geometry" />
        </mxCell>
        <mxCell id="ZsUvDULF3iTAYczw1AmM-17" value="&amp;nbsp; &amp;nbsp; &amp;nbsp; grade1" style="text;spacingLeft=4;spacingRight=4;overflow=hidden;rotatable=0;points=[[0,0.5],[1,0.5]];portConstraint=eastwest;fontSize=12;whiteSpace=wrap;html=1;labelBorderColor=none;fillColor=none;perimeterSpacing=11;strokeWidth=1;strokeColor=default;align=left;" vertex="1" parent="ZsUvDULF3iTAYczw1AmM-13">
          <mxGeometry y="25" width="112" height="25" as="geometry" />
        </mxCell>
        <mxCell id="ZsUvDULF3iTAYczw1AmM-16" value="&amp;nbsp; &amp;nbsp; &amp;nbsp; grade2" style="text;spacingLeft=4;spacingRight=4;overflow=hidden;rotatable=0;points=[[0,0.5],[1,0.5]];portConstraint=eastwest;fontSize=12;whiteSpace=wrap;html=1;labelBorderColor=none;fillColor=none;perimeterSpacing=11;strokeWidth=1;strokeColor=default;align=left;" vertex="1" parent="ZsUvDULF3iTAYczw1AmM-13">
          <mxGeometry y="50" width="112" height="25" as="geometry" />
        </mxCell>
        <mxCell id="ZsUvDULF3iTAYczw1AmM-15" value="&amp;nbsp; &amp;nbsp; &amp;nbsp; grade3" style="text;spacingLeft=4;spacingRight=4;overflow=hidden;rotatable=0;points=[[0,0.5],[1,0.5]];portConstraint=eastwest;fontSize=12;whiteSpace=wrap;html=1;labelBorderColor=none;fillColor=none;perimeterSpacing=11;strokeWidth=1;strokeColor=default;align=left;" vertex="1" parent="ZsUvDULF3iTAYczw1AmM-13">
          <mxGeometry y="75" width="112" height="25" as="geometry" />
        </mxCell>
        <mxCell id="ZsUvDULF3iTAYczw1AmM-18" style="rounded=0;orthogonalLoop=1;jettySize=auto;html=1;exitX=0;exitY=0;exitDx=0;exitDy=0;entryX=0.91;entryY=0.66;entryDx=0;entryDy=0;entryPerimeter=0;endArrow=none;endFill=0;dashed=1;dashPattern=8 8;" edge="1" parent="1" source="_AAOeLuktKhKLIWwnHHZ-238" target="ZsUvDULF3iTAYczw1AmM-15">
          <mxGeometry relative="1" as="geometry" />
        </mxCell>
      </root>
    </mxGraphModel>
  </diagram>
  <diagram id="1z00I2JpnnK7OSLCKGVL" name="Page-2">
    <mxGraphModel dx="1434" dy="772" grid="1" gridSize="10" guides="1" tooltips="1" connect="1" arrows="1" fold="1" page="1" pageScale="1" pageWidth="850" pageHeight="1100" math="0" shadow="0">
      <root>
        <mxCell id="0" />
        <mxCell id="1" parent="0" />
      </root>
    </mxGraphModel>
  </diagram>
</mxfile>
